<svg xmlns="http://www.w3.org/2000/svg" xmlns:xlink="http://www.w3.org/1999/xlink" xmlns:lucid="lucid" width="1420.5" height="665"><g transform="translate(1220.5 160.5)" lucid:page-tab-id="0_0"><path d="M-1200 1a5 5 0 0 1 5-5h350a5 5 0 0 1 5 5v414a5 5 0 0 1-5 5h-350a5 5 0 0 1-5-5z" fill="#fff"/><path d="M-1200 36V1a5 5 0 0 1 5-5h350a5 5 0 0 1 5 5v35" fill="#dedeff"/><path d="M-1200 1a5 5 0 0 1 5-5h350a5 5 0 0 1 5 5v414a5 5 0 0 1-5 5h-350a5 5 0 0 1-5-5zM-1200 36h360M-1020 36v384" stroke="#282c33" fill="none"/><use xlink:href="#a" transform="matrix(1,0,0,1,-1190,-4) translate(0 23.6)"/><use xlink:href="#b" transform="matrix(1,0,0,1,-1195,38.5) translate(0 17.1)"/><use xlink:href="#c" transform="matrix(1,0,0,1,-1015,38.5) translate(0 17.1)"/><use xlink:href="#d" transform="matrix(1,0,0,1,-1015,38.5) translate(60.95 17.1)"/><use xlink:href="#e" transform="matrix(1,0,0,1,-1195,70.5) translate(0 17.1)"/><use xlink:href="#f" transform="matrix(1,0,0,1,-1015,70.5) translate(0 17.1)"/><use xlink:href="#g" transform="matrix(1,0,0,1,-1195,102.5) translate(0 17.1)"/><use xlink:href="#f" transform="matrix(1,0,0,1,-1015,102.5) translate(0 17.1)"/><use xlink:href="#h" transform="matrix(1,0,0,1,-1195,134.5) translate(0 17.1)"/><use xlink:href="#f" transform="matrix(1,0,0,1,-1015,134.5) translate(0 17.1)"/><use xlink:href="#i" transform="matrix(1,0,0,1,-1195,166.5) translate(0 17.1)"/><use xlink:href="#f" transform="matrix(1,0,0,1,-1015,166.5) translate(0 17.1)"/><use xlink:href="#j" transform="matrix(1,0,0,1,-1195,198.5) translate(0 17.1)"/><use xlink:href="#k" transform="matrix(1,0,0,1,-1015,198.5) translate(0 17.1)"/><use xlink:href="#l" transform="matrix(1,0,0,1,-1195,230.5) translate(0 17.1)"/><use xlink:href="#k" transform="matrix(1,0,0,1,-1015,230.5) translate(0 17.1)"/><use xlink:href="#m" transform="matrix(1,0,0,1,-1195,262.5) translate(0 17.1)"/><use xlink:href="#n" transform="matrix(1,0,0,1,-1015,262.5) translate(0 17.1)"/><use xlink:href="#o" transform="matrix(1,0,0,1,-1195,294.5) translate(0 17.1)"/><use xlink:href="#k" transform="matrix(1,0,0,1,-1015,294.5) translate(0 17.1)"/><use xlink:href="#p" transform="matrix(1,0,0,1,-1195,326.5) translate(0 17.1)"/><use xlink:href="#q" transform="matrix(1,0,0,1,-1015,326.5) translate(0 17.1)"/><use xlink:href="#r" transform="matrix(1,0,0,1,-1195,358.5) translate(0 17.1)"/><use xlink:href="#q" transform="matrix(1,0,0,1,-1015,358.5) translate(0 17.1)"/><use xlink:href="#s" transform="matrix(1,0,0,1,-1195,390.5) translate(0 17.1)"/><use xlink:href="#q" transform="matrix(1,0,0,1,-1015,390.5) translate(0 17.1)"/><path d="M-600-135a5 5 0 0 1 5-5h270a5 5 0 0 1 5 5V-9a5 5 0 0 1-5 5h-270a5 5 0 0 1-5-5z" fill="#fff"/><path d="M-600-100v-35a5 5 0 0 1 5-5h270a5 5 0 0 1 5 5v35" fill="#dedeff"/><path d="M-600-135a5 5 0 0 1 5-5h270a5 5 0 0 1 5 5V-9a5 5 0 0 1-5 5h-270a5 5 0 0 1-5-5zM-600-100h280M-460-100v96" stroke="#282c33" fill="none"/><use xlink:href="#t" transform="matrix(1,0,0,1,-590,-140) translate(0 23.6)"/><use xlink:href="#b" transform="matrix(1,0,0,1,-595,-97.5) translate(0 17.1)"/><use xlink:href="#c" transform="matrix(1,0,0,1,-455,-97.5) translate(0 17.1)"/><use xlink:href="#d" transform="matrix(1,0,0,1,-455,-97.5) translate(60.95 17.1)"/><use xlink:href="#u" transform="matrix(1,0,0,1,-595,-65.5) translate(0 17.1)"/><use xlink:href="#f" transform="matrix(1,0,0,1,-455,-65.5) translate(0 17.1)"/><use xlink:href="#v" transform="matrix(1,0,0,1,-595,-33.5) translate(0 17.1)"/><use xlink:href="#c" transform="matrix(1,0,0,1,-455,-33.5) translate(0 17.1)"/><use xlink:href="#w" transform="matrix(1,0,0,1,-455,-33.5) translate(60.95 17.1)"/><path d="M-600 225a5 5 0 0 1 5-5h249.5a5 5 0 0 1 5 5v254a5 5 0 0 1-5 5H-595a5 5 0 0 1-5-5z" fill="#fff"/><path d="M-600 260v-35a5 5 0 0 1 5-5h249.5a5 5 0 0 1 5 5v35" fill="#dedeff"/><path d="M-600 225a5 5 0 0 1 5-5h249.5a5 5 0 0 1 5 5v254a5 5 0 0 1-5 5H-595a5 5 0 0 1-5-5zM-600 260h259.5M-461.72 260v224" stroke="#282c33" fill="none"/><use xlink:href="#x" transform="matrix(1,0,0,1,-590,220) translate(0 23.6)"/><use xlink:href="#b" transform="matrix(1,0,0,1,-595,262.5) translate(0 17.1)"/><use xlink:href="#c" transform="matrix(1,0,0,1,-456.72016542413854,262.5) translate(0 17.1)"/><use xlink:href="#d" transform="matrix(1,0,0,1,-456.72016542413854,262.5) translate(60.95 17.1)"/><use xlink:href="#y" transform="matrix(1,0,0,1,-595,294.5) translate(0 17.1)"/><use xlink:href="#f" transform="matrix(1,0,0,1,-456.72016542413854,294.5) translate(0 17.1)"/><use xlink:href="#z" transform="matrix(1,0,0,1,-595,326.5) translate(0 17.1)"/><use xlink:href="#f" transform="matrix(1,0,0,1,-456.72016542413854,326.5) translate(0 17.1)"/><use xlink:href="#A" transform="matrix(1,0,0,1,-595,358.5) translate(0 17.1)"/><use xlink:href="#c" transform="matrix(1,0,0,1,-456.72016542413854,358.5) translate(0 17.1)"/><use xlink:href="#w" transform="matrix(1,0,0,1,-456.72016542413854,358.5) translate(60.95 17.1)"/><use xlink:href="#B" transform="matrix(1,0,0,1,-595,390.5) translate(0 17.1)"/><use xlink:href="#c" transform="matrix(1,0,0,1,-456.72016542413854,390.5) translate(0 17.1)"/><use xlink:href="#w" transform="matrix(1,0,0,1,-456.72016542413854,390.5) translate(60.95 17.1)"/><use xlink:href="#C" transform="matrix(1,0,0,1,-595,422.5) translate(0 17.1)"/><use xlink:href="#c" transform="matrix(1,0,0,1,-456.72016542413854,422.5) translate(0 17.1)"/><use xlink:href="#w" transform="matrix(1,0,0,1,-456.72016542413854,422.5) translate(60.95 17.1)"/><use xlink:href="#D" transform="matrix(1,0,0,1,-595,454.5) translate(0 17.1)"/><use xlink:href="#c" transform="matrix(1,0,0,1,-456.72016542413854,454.5) translate(0 17.1)"/><use xlink:href="#w" transform="matrix(1,0,0,1,-456.72016542413854,454.5) translate(60.95 17.1)"/><path d="M-100.5-135a5 5 0 0 1 5-5h270a5 5 0 0 1 5 5V-9a5 5 0 0 1-5 5h-270a5 5 0 0 1-5-5z" fill="#fff"/><path d="M-100.5-100v-35a5 5 0 0 1 5-5h270a5 5 0 0 1 5 5v35" fill="#dedeff"/><path d="M-100.5-135a5 5 0 0 1 5-5h270a5 5 0 0 1 5 5V-9a5 5 0 0 1-5 5h-270a5 5 0 0 1-5-5zM-100.5-100h280M39.5-100v96" stroke="#282c33" fill="none"/><use xlink:href="#E" transform="matrix(1,0,0,1,-90.5,-140) translate(0 23.6)"/><use xlink:href="#b" transform="matrix(1,0,0,1,-95.5,-97.5) translate(0 17.1)"/><use xlink:href="#c" transform="matrix(1,0,0,1,44.5,-97.5) translate(0 17.1)"/><use xlink:href="#d" transform="matrix(1,0,0,1,44.5,-97.5) translate(60.95 17.1)"/><use xlink:href="#u" transform="matrix(1,0,0,1,-95.5,-65.5) translate(0 17.1)"/><use xlink:href="#f" transform="matrix(1,0,0,1,44.5,-65.5) translate(0 17.1)"/><use xlink:href="#A" transform="matrix(1,0,0,1,-95.5,-33.5) translate(0 17.1)"/><use xlink:href="#c" transform="matrix(1,0,0,1,44.5,-33.5) translate(0 17.1)"/><use xlink:href="#w" transform="matrix(1,0,0,1,44.5,-33.5) translate(60.95 17.1)"/><path d="M-100.5 245a5 5 0 0 1 5-5h270a5 5 0 0 1 5 5v190a5 5 0 0 1-5 5h-270a5 5 0 0 1-5-5z" fill="#fff"/><path d="M-100.5 280v-35a5 5 0 0 1 5-5h270a5 5 0 0 1 5 5v35" fill="#dedeff"/><path d="M-100.5 245a5 5 0 0 1 5-5h270a5 5 0 0 1 5 5v190a5 5 0 0 1-5 5h-270a5 5 0 0 1-5-5zM-100.5 280h280M39.5 280v160" stroke="#282c33" fill="none"/><use xlink:href="#F" transform="matrix(1,0,0,1,-90.5,240) translate(0 23.6)"/><use xlink:href="#b" transform="matrix(1,0,0,1,-95.5,282.5) translate(0 17.1)"/><use xlink:href="#c" transform="matrix(1,0,0,1,44.5,282.5) translate(0 17.1)"/><use xlink:href="#d" transform="matrix(1,0,0,1,44.5,282.5) translate(60.95 17.1)"/><use xlink:href="#y" transform="matrix(1,0,0,1,-95.5,314.5) translate(0 17.1)"/><use xlink:href="#f" transform="matrix(1,0,0,1,44.5,314.5) translate(0 17.1)"/><use xlink:href="#G" transform="matrix(1,0,0,1,-95.5,346.5) translate(0 17.1)"/><use xlink:href="#k" transform="matrix(1,0,0,1,44.5,346.5) translate(0 17.1)"/><use xlink:href="#H" transform="matrix(1,0,0,1,-95.5,378.5) translate(0 17.1)"/><use xlink:href="#c" transform="matrix(1,0,0,1,44.5,378.5) translate(0 17.1)"/><use xlink:href="#w" transform="matrix(1,0,0,1,44.5,378.5) translate(60.95 17.1)"/><use xlink:href="#D" transform="matrix(1,0,0,1,-95.5,410.5) translate(0 17.1)"/><use xlink:href="#c" transform="matrix(1,0,0,1,44.5,410.5) translate(0 17.1)"/><use xlink:href="#w" transform="matrix(1,0,0,1,44.5,410.5) translate(60.95 17.1)"/><path d="M-820.1 212h94.1a6 6 0 0 0 6-6V-13.8a6 6 0 0 1 6-6h94.1" stroke="#3a414a" fill="none"/><path d="M-839.28 202l20 10-20 10" stroke="#3a414a" fill="#fff" fill-opacity="0"/><path d="M-839.28 212h20" stroke="#3a414a" fill="#fff"/><path d="M-600.72-9.8l-20-10 20-10" stroke="#3a414a" fill="#fff" fill-opacity="0"/><path d="M-600.72-19.8h-20" stroke="#3a414a" fill="#fff"/><path d="M-299.5-84.04h93.5a6 6 0 0 1 6 6v52.23a6 6 0 0 0 6 6h73.6" stroke="#3a414a" fill="none"/><path d="M-299.5-74.04v-20M-319.5-84.04h20" stroke="#3a414a" fill="#fff"/><path d="M-101.22-9.8l-20-10 20-10" stroke="#3a414a" fill="#fff" fill-opacity="0"/><path d="M-101.22-19.8h-20" stroke="#3a414a" fill="#fff"/><path d="M-121-84.04h-33a6 6 0 0 0-6 6V269.7a6 6 0 0 1-6 6h-154.6" stroke="#3a414a" fill="none"/><path d="M-121-94.04v20M-101-84.04h-20" stroke="#3a414a" fill="#fff"/><path d="M-339.78 265.7l20 10-20 10" stroke="#3a414a" fill="#fff" fill-opacity="0"/><path d="M-339.78 275.7h20" stroke="#3a414a" fill="#fff"/><path d="M-320 339.95h93.5a6 6 0 0 1 6 6v40.24a6 6 0 0 0 6 6h94.1" stroke="#3a414a" fill="none"/><path d="M-320 349.95v-20M-340 339.95h20" stroke="#3a414a" fill="#fff"/><path d="M-101.22 402.2l-20-10 20-10" stroke="#3a414a" fill="#fff" fill-opacity="0"/><path d="M-101.22 392.2h-20" stroke="#3a414a" fill="#fff"/><path d="M-819.5 244.1h93.5a6 6 0 0 1 6 6v180.22a6 6 0 0 0 6 6h94.1" stroke="#3a414a" fill="none"/><path d="M-819.5 254.1v-20M-839.5 244.1h20" stroke="#3a414a" fill="#fff"/><path d="M-600.72 446.32l-20-10 20-10" stroke="#3a414a" fill="#fff" fill-opacity="0"/><path d="M-600.72 436.32h-20" stroke="#3a414a" fill="#fff"/><defs><path fill="#333" d="M212-179c-10-28-35-45-73-45-59 0-87 40-87 99 0 60 29 101 89 101 43 0 62-24 78-52l27 14C228-24 195 4 139 4 59 4 22-46 18-125c-6-104 99-153 187-111 19 9 31 26 39 46" id="I"/><path fill="#333" d="M84 4C-5 8 30-112 23-190h32v120c0 31 7 50 39 49 72-2 45-101 50-169h31l1 190h-30c-1-10 1-25-2-33-11 22-28 36-60 37" id="J"/><path fill="#333" d="M135-143c-3-34-86-38-87 0 15 53 115 12 119 90S17 21 10-45l28-5c4 36 97 45 98 0-10-56-113-15-118-90-4-57 82-63 122-42 12 7 21 19 24 35" id="K"/><path fill="#333" d="M59-47c-2 24 18 29 38 22v24C64 9 27 4 27-40v-127H5v-23h24l9-43h21v43h35v23H59v120" id="L"/><path fill="#333" d="M100-194c62-1 85 37 85 99 1 63-27 99-86 99S16-35 15-95c0-66 28-99 85-99zM99-20c44 1 53-31 53-75 0-43-8-75-51-75s-53 32-53 75 10 74 51 75" id="M"/><path fill="#333" d="M210-169c-67 3-38 105-44 169h-31v-121c0-29-5-50-35-48C34-165 62-65 56 0H25l-1-190h30c1 10-1 24 2 32 10-44 99-50 107 0 11-21 27-35 58-36 85-2 47 119 55 194h-31v-121c0-29-5-49-35-48" id="N"/><path fill="#333" d="M232-93c-1 65-40 97-104 97C67 4 28-28 28-90v-158h33c8 89-33 224 67 224 102 0 64-133 71-224h33v155" id="O"/><path fill="#333" d="M100-194c63 0 86 42 84 106H49c0 40 14 67 53 68 26 1 43-12 49-29l28 8c-11 28-37 45-77 45C44 4 14-33 15-96c1-61 26-98 85-98zm52 81c6-60-76-77-97-28-3 7-6 17-6 28h103" id="P"/><path fill="#333" d="M114-163C36-179 61-72 57 0H25l-1-190h30c1 12-1 29 2 39 6-27 23-49 58-41v29" id="Q"/><g id="a"><use transform="matrix(0.05,0,0,0.05,0,0)" xlink:href="#I"/><use transform="matrix(0.05,0,0,0.05,12.950000000000001,0)" xlink:href="#J"/><use transform="matrix(0.05,0,0,0.05,22.950000000000003,0)" xlink:href="#K"/><use transform="matrix(0.05,0,0,0.05,31.950000000000003,0)" xlink:href="#L"/><use transform="matrix(0.05,0,0,0.05,36.95,0)" xlink:href="#M"/><use transform="matrix(0.05,0,0,0.05,46.95,0)" xlink:href="#N"/><use transform="matrix(0.05,0,0,0.05,61.900000000000006,0)" xlink:href="#O"/><use transform="matrix(0.05,0,0,0.05,74.85000000000001,0)" xlink:href="#K"/><use transform="matrix(0.05,0,0,0.05,83.85000000000001,0)" xlink:href="#P"/><use transform="matrix(0.05,0,0,0.05,93.85000000000001,0)" xlink:href="#Q"/></g><path fill="#333" d="M-5 72V49h209v23H-5" id="R"/><path fill="#333" d="M24-231v-30h32v30H24zM24 0v-190h32V0H24" id="S"/><path fill="#333" d="M85-194c31 0 48 13 60 33l-1-100h32l1 261h-30c-2-10 0-23-3-31C134-8 116 4 85 4 32 4 16-35 15-94c0-66 23-100 70-100zm9 24c-40 0-46 34-46 75 0 40 6 74 45 74 42 0 51-32 51-76 0-42-9-74-50-73" id="T"/><g id="b"><use transform="matrix(0.05,0,0,0.05,0,0)" xlink:href="#R"/><use transform="matrix(0.05,0,0,0.05,10,0)" xlink:href="#S"/><use transform="matrix(0.05,0,0,0.05,13.949999999999998,0)" xlink:href="#T"/></g><path fill="#333" d="M33 0v-248h34V0H33" id="U"/><path fill="#333" d="M117-194c89-4 53 116 60 194h-32v-121c0-31-8-49-39-48C34-167 62-67 57 0H25l-1-190h30c1 10-1 24 2 32 11-22 29-35 61-36" id="V"/><path fill="#333" d="M177-190C167-65 218 103 67 71c-23-6-38-20-44-43l32-5c15 47 100 32 89-28v-30C133-14 115 1 83 1 29 1 15-40 15-95c0-56 16-97 71-98 29-1 48 16 59 35 1-10 0-23 2-32h30zM94-22c36 0 50-32 50-73 0-42-14-75-50-75-39 0-46 34-46 75s6 73 46 73" id="W"/><g id="c"><use transform="matrix(0.05,0,0,0.05,0,0)" xlink:href="#U"/><use transform="matrix(0.05,0,0,0.05,5,0)" xlink:href="#V"/><use transform="matrix(0.05,0,0,0.05,15,0)" xlink:href="#L"/><use transform="matrix(0.05,0,0,0.05,20,0)" xlink:href="#P"/><use transform="matrix(0.05,0,0,0.05,30,0)" xlink:href="#W"/><use transform="matrix(0.05,0,0,0.05,40,0)" xlink:href="#P"/><use transform="matrix(0.05,0,0,0.05,50,0)" xlink:href="#Q"/></g><path fill="#333" d="M87 75C49 33 22-17 22-94c0-76 28-126 65-167h31c-38 41-64 92-64 168S80 34 118 75H87" id="X"/><path fill="#333" d="M30-248c87 1 191-15 191 75 0 78-77 80-158 76V0H30v-248zm33 125c57 0 124 11 124-50 0-59-68-47-124-48v98" id="Y"/><path fill="#333" d="M194 0L95-120 63-95V0H30v-248h33v124l119-124h40L117-140 236 0h-42" id="Z"/><path fill="#333" d="M33-261c38 41 65 92 65 168S71 34 33 75H2C39 34 66-17 66-93S39-220 2-261h31" id="aa"/><g id="d"><use transform="matrix(0.05,0,0,0.05,0,0)" xlink:href="#X"/><use transform="matrix(0.05,0,0,0.05,5.95,0)" xlink:href="#Y"/><use transform="matrix(0.05,0,0,0.05,17.95,0)" xlink:href="#Z"/><use transform="matrix(0.05,0,0,0.05,29.950000000000003,0)" xlink:href="#aa"/></g><path fill="#333" d="M141-36C126-15 110 5 73 4 37 3 15-17 15-53c-1-64 63-63 125-63 3-35-9-54-41-54-24 1-41 7-42 31l-33-3c5-37 33-52 76-52 45 0 72 20 72 64v82c-1 20 7 32 28 27v20c-31 9-61-2-59-35zM48-53c0 20 12 33 32 33 41-3 63-29 60-74-43 2-92-5-92 41" id="ab"/><g id="e"><use transform="matrix(0.05,0,0,0.05,0,0)" xlink:href="#J"/><use transform="matrix(0.05,0,0,0.05,10,0)" xlink:href="#K"/><use transform="matrix(0.05,0,0,0.05,19,0)" xlink:href="#P"/><use transform="matrix(0.05,0,0,0.05,29,0)" xlink:href="#Q"/><use transform="matrix(0.05,0,0,0.05,34.95,0)" xlink:href="#V"/><use transform="matrix(0.05,0,0,0.05,44.95,0)" xlink:href="#ab"/><use transform="matrix(0.05,0,0,0.05,54.95,0)" xlink:href="#N"/><use transform="matrix(0.05,0,0,0.05,69.9,0)" xlink:href="#P"/></g><path fill="#333" d="M185-189c-5-48-123-54-124 2 14 75 158 14 163 119 3 78-121 87-175 55-17-10-28-26-33-46l33-7c5 56 141 63 141-1 0-78-155-14-162-118-5-82 145-84 179-34 5 7 8 16 11 25" id="ac"/><g id="f"><use transform="matrix(0.05,0,0,0.05,0,0)" xlink:href="#ac"/><use transform="matrix(0.05,0,0,0.05,12,0)" xlink:href="#L"/><use transform="matrix(0.05,0,0,0.05,17,0)" xlink:href="#Q"/><use transform="matrix(0.05,0,0,0.05,22.95,0)" xlink:href="#S"/><use transform="matrix(0.05,0,0,0.05,26.899999999999995,0)" xlink:href="#V"/><use transform="matrix(0.05,0,0,0.05,36.9,0)" xlink:href="#W"/></g><path fill="#333" d="M101-234c-31-9-42 10-38 44h38v23H63V0H32v-167H5v-23h27c-7-52 17-82 69-68v24" id="ad"/><g id="g"><use transform="matrix(0.05,0,0,0.05,0,0)" xlink:href="#ad"/><use transform="matrix(0.05,0,0,0.05,5,0)" xlink:href="#S"/><use transform="matrix(0.05,0,0,0.05,8.95,0)" xlink:href="#Q"/><use transform="matrix(0.05,0,0,0.05,14.899999999999999,0)" xlink:href="#K"/><use transform="matrix(0.05,0,0,0.05,23.9,0)" xlink:href="#L"/><use transform="matrix(0.05,0,0,0.05,28.899999999999995,0)" xlink:href="#R"/><use transform="matrix(0.05,0,0,0.05,38.9,0)" xlink:href="#V"/><use transform="matrix(0.05,0,0,0.05,48.9,0)" xlink:href="#ab"/><use transform="matrix(0.05,0,0,0.05,58.900000000000006,0)" xlink:href="#N"/><use transform="matrix(0.05,0,0,0.05,73.85,0)" xlink:href="#P"/></g><path fill="#333" d="M24 0v-261h32V0H24" id="ae"/><g id="h"><use transform="matrix(0.05,0,0,0.05,0,0)" xlink:href="#ae"/><use transform="matrix(0.05,0,0,0.05,3.95,0)" xlink:href="#ab"/><use transform="matrix(0.05,0,0,0.05,13.949999999999998,0)" xlink:href="#K"/><use transform="matrix(0.05,0,0,0.05,22.95,0)" xlink:href="#L"/><use transform="matrix(0.05,0,0,0.05,27.950000000000003,0)" xlink:href="#R"/><use transform="matrix(0.05,0,0,0.05,37.95,0)" xlink:href="#V"/><use transform="matrix(0.05,0,0,0.05,47.95,0)" xlink:href="#ab"/><use transform="matrix(0.05,0,0,0.05,57.95,0)" xlink:href="#N"/><use transform="matrix(0.05,0,0,0.05,72.9,0)" xlink:href="#P"/></g><path fill="#333" d="M115-194c55 1 70 41 70 98S169 2 115 4C84 4 66-9 55-30l1 105H24l-1-265h31l2 30c10-21 28-34 59-34zm-8 174c40 0 45-34 45-75s-6-73-45-74c-42 0-51 32-51 76 0 43 10 73 51 73" id="af"/><path fill="#333" d="M206 0h-36l-40-164L89 0H53L-1-190h32L70-26l43-164h34l41 164 42-164h31" id="ag"/><g id="i"><use transform="matrix(0.05,0,0,0.05,0,0)" xlink:href="#af"/><use transform="matrix(0.05,0,0,0.05,10,0)" xlink:href="#ab"/><use transform="matrix(0.05,0,0,0.05,20,0)" xlink:href="#K"/><use transform="matrix(0.05,0,0,0.05,29,0)" xlink:href="#K"/><use transform="matrix(0.05,0,0,0.05,38,0)" xlink:href="#ag"/><use transform="matrix(0.05,0,0,0.05,50.95,0)" xlink:href="#M"/><use transform="matrix(0.05,0,0,0.05,60.95,0)" xlink:href="#Q"/><use transform="matrix(0.05,0,0,0.05,66.9,0)" xlink:href="#T"/></g><g id="j"><use transform="matrix(0.05,0,0,0.05,0,0)" xlink:href="#S"/><use transform="matrix(0.05,0,0,0.05,3.95,0)" xlink:href="#K"/><use transform="matrix(0.05,0,0,0.05,12.949999999999998,0)" xlink:href="#R"/><use transform="matrix(0.05,0,0,0.05,22.95,0)" xlink:href="#K"/><use transform="matrix(0.05,0,0,0.05,31.950000000000003,0)" xlink:href="#L"/><use transform="matrix(0.05,0,0,0.05,36.95,0)" xlink:href="#ab"/><use transform="matrix(0.05,0,0,0.05,46.95,0)" xlink:href="#ad"/><use transform="matrix(0.05,0,0,0.05,51.6,0)" xlink:href="#ad"/></g><path fill="#333" d="M160-131c35 5 61 23 61 61C221 17 115-2 30 0v-248c76 3 177-17 177 60 0 33-19 50-47 57zm-97-11c50-1 110 9 110-42 0-47-63-36-110-37v79zm0 115c55-2 124 14 124-45 0-56-70-42-124-44v89" id="ah"/><g id="k"><use transform="matrix(0.05,0,0,0.05,0,0)" xlink:href="#ah"/><use transform="matrix(0.05,0,0,0.05,12,0)" xlink:href="#M"/><use transform="matrix(0.05,0,0,0.05,22,0)" xlink:href="#M"/><use transform="matrix(0.05,0,0,0.05,32,0)" xlink:href="#ae"/><use transform="matrix(0.05,0,0,0.05,35.95,0)" xlink:href="#P"/><use transform="matrix(0.05,0,0,0.05,45.95,0)" xlink:href="#ab"/><use transform="matrix(0.05,0,0,0.05,55.95,0)" xlink:href="#V"/></g><path fill="#333" d="M96-169c-40 0-48 33-48 73s9 75 48 75c24 0 41-14 43-38l32 2c-6 37-31 61-74 61-59 0-76-41-82-99-10-93 101-131 147-64 4 7 5 14 7 22l-32 3c-4-21-16-35-41-35" id="ai"/><path fill="#333" d="M108 0H70L1-190h34L89-25l56-165h34" id="aj"/><g id="l"><use transform="matrix(0.05,0,0,0.05,0,0)" xlink:href="#S"/><use transform="matrix(0.05,0,0,0.05,3.95,0)" xlink:href="#K"/><use transform="matrix(0.05,0,0,0.05,12.949999999999998,0)" xlink:href="#R"/><use transform="matrix(0.05,0,0,0.05,22.95,0)" xlink:href="#ab"/><use transform="matrix(0.05,0,0,0.05,32.95,0)" xlink:href="#ai"/><use transform="matrix(0.05,0,0,0.05,41.95,0)" xlink:href="#L"/><use transform="matrix(0.05,0,0,0.05,46.95,0)" xlink:href="#S"/><use transform="matrix(0.05,0,0,0.05,50.900000000000006,0)" xlink:href="#aj"/><use transform="matrix(0.05,0,0,0.05,59.900000000000006,0)" xlink:href="#P"/></g><g id="m"><use transform="matrix(0.05,0,0,0.05,0,0)" xlink:href="#Q"/><use transform="matrix(0.05,0,0,0.05,5.95,0)" xlink:href="#M"/><use transform="matrix(0.05,0,0,0.05,15.949999999999998,0)" xlink:href="#ae"/><use transform="matrix(0.05,0,0,0.05,19.9,0)" xlink:href="#P"/></g><path fill="#333" d="M179-190L93 31C79 59 56 82 12 73V49c39 6 53-20 64-50L1-190h34L92-34l54-156h33" id="ak"/><g id="n"><use transform="matrix(0.05,0,0,0.05,0,0)" xlink:href="#Q"/><use transform="matrix(0.05,0,0,0.05,5.95,0)" xlink:href="#M"/><use transform="matrix(0.05,0,0,0.05,15.949999999999998,0)" xlink:href="#ae"/><use transform="matrix(0.05,0,0,0.05,19.9,0)" xlink:href="#P"/><use transform="matrix(0.05,0,0,0.05,29.899999999999995,0)" xlink:href="#R"/><use transform="matrix(0.05,0,0,0.05,39.9,0)" xlink:href="#L"/><use transform="matrix(0.05,0,0,0.05,44.9,0)" xlink:href="#ak"/><use transform="matrix(0.05,0,0,0.05,53.900000000000006,0)" xlink:href="#af"/><use transform="matrix(0.05,0,0,0.05,63.900000000000006,0)" xlink:href="#P"/></g><g id="o"><use transform="matrix(0.05,0,0,0.05,0,0)" xlink:href="#S"/><use transform="matrix(0.05,0,0,0.05,3.95,0)" xlink:href="#K"/><use transform="matrix(0.05,0,0,0.05,12.949999999999998,0)" xlink:href="#R"/><use transform="matrix(0.05,0,0,0.05,22.95,0)" xlink:href="#K"/><use transform="matrix(0.05,0,0,0.05,31.950000000000003,0)" xlink:href="#J"/><use transform="matrix(0.05,0,0,0.05,41.95,0)" xlink:href="#af"/><use transform="matrix(0.05,0,0,0.05,51.95,0)" xlink:href="#P"/><use transform="matrix(0.05,0,0,0.05,61.95,0)" xlink:href="#Q"/><use transform="matrix(0.05,0,0,0.05,67.9,0)" xlink:href="#J"/><use transform="matrix(0.05,0,0,0.05,77.9,0)" xlink:href="#K"/><use transform="matrix(0.05,0,0,0.05,86.9,0)" xlink:href="#P"/><use transform="matrix(0.05,0,0,0.05,96.9,0)" xlink:href="#Q"/></g><path fill="#333" d="M24-231v-30h32v30H24zM-9 49c24 4 33-6 33-30v-209h32V24c2 40-23 58-65 49V49" id="al"/><g id="p"><use transform="matrix(0.05,0,0,0.05,0,0)" xlink:href="#ae"/><use transform="matrix(0.05,0,0,0.05,3.95,0)" xlink:href="#ab"/><use transform="matrix(0.05,0,0,0.05,13.949999999999998,0)" xlink:href="#K"/><use transform="matrix(0.05,0,0,0.05,22.95,0)" xlink:href="#L"/><use transform="matrix(0.05,0,0,0.05,27.950000000000003,0)" xlink:href="#R"/><use transform="matrix(0.05,0,0,0.05,37.95,0)" xlink:href="#al"/><use transform="matrix(0.05,0,0,0.05,41.900000000000006,0)" xlink:href="#M"/><use transform="matrix(0.05,0,0,0.05,51.900000000000006,0)" xlink:href="#S"/><use transform="matrix(0.05,0,0,0.05,55.85,0)" xlink:href="#V"/></g><path fill="#333" d="M30-248c118-7 216 8 213 122C240-48 200 0 122 0H30v-248zM63-27c89 8 146-16 146-99s-60-101-146-95v194" id="am"/><g id="q"><use transform="matrix(0.05,0,0,0.05,0,0)" xlink:href="#am"/><use transform="matrix(0.05,0,0,0.05,12.950000000000001,0)" xlink:href="#ab"/><use transform="matrix(0.05,0,0,0.05,22.950000000000003,0)" xlink:href="#L"/><use transform="matrix(0.05,0,0,0.05,27.950000000000003,0)" xlink:href="#P"/></g><path fill="#333" d="M63-220v92h138v28H63V0H30v-248h175v28H63" id="an"/><g id="r"><use transform="matrix(0.05,0,0,0.05,0,0)" xlink:href="#an"/><use transform="matrix(0.05,0,0,0.05,10.950000000000001,0)" xlink:href="#S"/><use transform="matrix(0.05,0,0,0.05,14.9,0)" xlink:href="#P"/><use transform="matrix(0.05,0,0,0.05,24.900000000000002,0)" xlink:href="#ae"/><use transform="matrix(0.05,0,0,0.05,28.85,0)" xlink:href="#T"/></g><g id="s"><use transform="matrix(0.05,0,0,0.05,0,0)" xlink:href="#T"/><use transform="matrix(0.05,0,0,0.05,10,0)" xlink:href="#ab"/><use transform="matrix(0.05,0,0,0.05,20,0)" xlink:href="#L"/><use transform="matrix(0.05,0,0,0.05,25,0)" xlink:href="#P"/><use transform="matrix(0.05,0,0,0.05,35,0)" xlink:href="#R"/><use transform="matrix(0.05,0,0,0.05,45,0)" xlink:href="#al"/><use transform="matrix(0.05,0,0,0.05,48.95,0)" xlink:href="#M"/><use transform="matrix(0.05,0,0,0.05,58.95,0)" xlink:href="#S"/><use transform="matrix(0.05,0,0,0.05,62.900000000000006,0)" xlink:href="#V"/></g><g id="t"><use transform="matrix(0.05,0,0,0.05,0,0)" xlink:href="#ah"/><use transform="matrix(0.05,0,0,0.05,12,0)" xlink:href="#M"/><use transform="matrix(0.05,0,0,0.05,22,0)" xlink:href="#ab"/><use transform="matrix(0.05,0,0,0.05,32,0)" xlink:href="#Q"/><use transform="matrix(0.05,0,0,0.05,37.95,0)" xlink:href="#T"/></g><g id="u"><use transform="matrix(0.05,0,0,0.05,0,0)" xlink:href="#V"/><use transform="matrix(0.05,0,0,0.05,10,0)" xlink:href="#ab"/><use transform="matrix(0.05,0,0,0.05,20,0)" xlink:href="#N"/><use transform="matrix(0.05,0,0,0.05,34.95,0)" xlink:href="#P"/></g><g id="v"><use transform="matrix(0.05,0,0,0.05,0,0)" xlink:href="#M"/><use transform="matrix(0.05,0,0,0.05,10,0)" xlink:href="#ag"/><use transform="matrix(0.05,0,0,0.05,22.950000000000003,0)" xlink:href="#V"/><use transform="matrix(0.05,0,0,0.05,32.95,0)" xlink:href="#P"/><use transform="matrix(0.05,0,0,0.05,42.95,0)" xlink:href="#Q"/><use transform="matrix(0.05,0,0,0.05,48.900000000000006,0)" xlink:href="#R"/><use transform="matrix(0.05,0,0,0.05,58.900000000000006,0)" xlink:href="#S"/><use transform="matrix(0.05,0,0,0.05,62.85,0)" xlink:href="#T"/></g><g id="w"><use transform="matrix(0.05,0,0,0.05,0,0)" xlink:href="#X"/><use transform="matrix(0.05,0,0,0.05,5.95,0)" xlink:href="#an"/><use transform="matrix(0.05,0,0,0.05,16.900000000000002,0)" xlink:href="#Z"/><use transform="matrix(0.05,0,0,0.05,28.900000000000002,0)" xlink:href="#aa"/></g><path fill="#333" d="M127-220V0H93v-220H8v-28h204v28h-85" id="ao"/><path fill="#333" d="M143 0L79-87 56-68V0H24v-261h32v163l83-92h37l-77 82L181 0h-38" id="ap"/><g id="x"><use transform="matrix(0.05,0,0,0.05,0,0)" xlink:href="#ao"/><use transform="matrix(0.05,0,0,0.05,8.950000000000001,0)" xlink:href="#ab"/><use transform="matrix(0.05,0,0,0.05,18.950000000000003,0)" xlink:href="#K"/><use transform="matrix(0.05,0,0,0.05,27.950000000000003,0)" xlink:href="#ap"/></g><g id="y"><use transform="matrix(0.05,0,0,0.05,0,0)" xlink:href="#L"/><use transform="matrix(0.05,0,0,0.05,5,0)" xlink:href="#S"/><use transform="matrix(0.05,0,0,0.05,8.95,0)" xlink:href="#L"/><use transform="matrix(0.05,0,0,0.05,13.949999999999998,0)" xlink:href="#ae"/><use transform="matrix(0.05,0,0,0.05,17.9,0)" xlink:href="#P"/></g><g id="z"><use transform="matrix(0.05,0,0,0.05,0,0)" xlink:href="#T"/><use transform="matrix(0.05,0,0,0.05,10,0)" xlink:href="#P"/><use transform="matrix(0.05,0,0,0.05,20,0)" xlink:href="#K"/><use transform="matrix(0.05,0,0,0.05,29,0)" xlink:href="#ai"/><use transform="matrix(0.05,0,0,0.05,38,0)" xlink:href="#Q"/><use transform="matrix(0.05,0,0,0.05,43.95,0)" xlink:href="#S"/><use transform="matrix(0.05,0,0,0.05,47.900000000000006,0)" xlink:href="#af"/><use transform="matrix(0.05,0,0,0.05,57.900000000000006,0)" xlink:href="#L"/><use transform="matrix(0.05,0,0,0.05,62.900000000000006,0)" xlink:href="#S"/><use transform="matrix(0.05,0,0,0.05,66.85000000000001,0)" xlink:href="#M"/><use transform="matrix(0.05,0,0,0.05,76.85000000000001,0)" xlink:href="#V"/></g><path fill="#333" d="M115-194c53 0 69 39 70 98 0 66-23 100-70 100C84 3 66-7 56-30L54 0H23l1-261h32v101c10-23 28-34 59-34zm-8 174c40 0 45-34 45-75 0-40-5-75-45-74-42 0-51 32-51 76 0 43 10 73 51 73" id="aq"/><g id="A"><use transform="matrix(0.05,0,0,0.05,0,0)" xlink:href="#aq"/><use transform="matrix(0.05,0,0,0.05,10,0)" xlink:href="#M"/><use transform="matrix(0.05,0,0,0.05,20,0)" xlink:href="#ab"/><use transform="matrix(0.05,0,0,0.05,30,0)" xlink:href="#Q"/><use transform="matrix(0.05,0,0,0.05,35.95,0)" xlink:href="#T"/><use transform="matrix(0.05,0,0,0.05,45.95,0)" xlink:href="#R"/><use transform="matrix(0.05,0,0,0.05,55.95,0)" xlink:href="#S"/><use transform="matrix(0.05,0,0,0.05,59.900000000000006,0)" xlink:href="#T"/></g><g id="B"><use transform="matrix(0.05,0,0,0.05,0,0)" xlink:href="#ai"/><use transform="matrix(0.05,0,0,0.05,9,0)" xlink:href="#M"/><use transform="matrix(0.05,0,0,0.05,19,0)" xlink:href="#ae"/><use transform="matrix(0.05,0,0,0.05,22.95,0)" xlink:href="#J"/><use transform="matrix(0.05,0,0,0.05,32.95,0)" xlink:href="#N"/><use transform="matrix(0.05,0,0,0.05,47.900000000000006,0)" xlink:href="#V"/><use transform="matrix(0.05,0,0,0.05,57.900000000000006,0)" xlink:href="#R"/><use transform="matrix(0.05,0,0,0.05,67.9,0)" xlink:href="#S"/><use transform="matrix(0.05,0,0,0.05,71.85000000000001,0)" xlink:href="#T"/></g><g id="C"><use transform="matrix(0.05,0,0,0.05,0,0)" xlink:href="#ab"/><use transform="matrix(0.05,0,0,0.05,10,0)" xlink:href="#K"/><use transform="matrix(0.05,0,0,0.05,19,0)" xlink:href="#K"/><use transform="matrix(0.05,0,0,0.05,28,0)" xlink:href="#S"/><use transform="matrix(0.05,0,0,0.05,31.950000000000003,0)" xlink:href="#W"/><use transform="matrix(0.05,0,0,0.05,41.95,0)" xlink:href="#V"/><use transform="matrix(0.05,0,0,0.05,51.95,0)" xlink:href="#R"/><use transform="matrix(0.05,0,0,0.05,61.95,0)" xlink:href="#L"/><use transform="matrix(0.05,0,0,0.05,66.95,0)" xlink:href="#M"/><use transform="matrix(0.05,0,0,0.05,76.95,0)" xlink:href="#R"/><use transform="matrix(0.05,0,0,0.05,86.95,0)" xlink:href="#S"/><use transform="matrix(0.05,0,0,0.05,90.9,0)" xlink:href="#T"/></g><g id="D"><use transform="matrix(0.05,0,0,0.05,0,0)" xlink:href="#ai"/><use transform="matrix(0.05,0,0,0.05,9,0)" xlink:href="#Q"/><use transform="matrix(0.05,0,0,0.05,14.949999999999998,0)" xlink:href="#P"/><use transform="matrix(0.05,0,0,0.05,24.95,0)" xlink:href="#ab"/><use transform="matrix(0.05,0,0,0.05,34.95,0)" xlink:href="#L"/><use transform="matrix(0.05,0,0,0.05,39.95,0)" xlink:href="#P"/><use transform="matrix(0.05,0,0,0.05,49.95,0)" xlink:href="#T"/><use transform="matrix(0.05,0,0,0.05,59.95,0)" xlink:href="#R"/><use transform="matrix(0.05,0,0,0.05,69.95,0)" xlink:href="#aq"/><use transform="matrix(0.05,0,0,0.05,79.95,0)" xlink:href="#ak"/><use transform="matrix(0.05,0,0,0.05,88.95,0)" xlink:href="#R"/><use transform="matrix(0.05,0,0,0.05,98.95,0)" xlink:href="#S"/><use transform="matrix(0.05,0,0,0.05,102.9,0)" xlink:href="#T"/></g><g id="E"><use transform="matrix(0.05,0,0,0.05,0,0)" xlink:href="#I"/><use transform="matrix(0.05,0,0,0.05,12.950000000000001,0)" xlink:href="#M"/><use transform="matrix(0.05,0,0,0.05,22.950000000000003,0)" xlink:href="#ae"/><use transform="matrix(0.05,0,0,0.05,26.900000000000002,0)" xlink:href="#J"/><use transform="matrix(0.05,0,0,0.05,36.900000000000006,0)" xlink:href="#N"/><use transform="matrix(0.05,0,0,0.05,51.85,0)" xlink:href="#V"/></g><g id="F"><use transform="matrix(0.05,0,0,0.05,0,0)" xlink:href="#ac"/><use transform="matrix(0.05,0,0,0.05,12,0)" xlink:href="#J"/><use transform="matrix(0.05,0,0,0.05,22,0)" xlink:href="#aq"/><use transform="matrix(0.05,0,0,0.05,32,0)" xlink:href="#L"/><use transform="matrix(0.05,0,0,0.05,37,0)" xlink:href="#ab"/><use transform="matrix(0.05,0,0,0.05,47,0)" xlink:href="#K"/><use transform="matrix(0.05,0,0,0.05,56,0)" xlink:href="#ap"/></g><g id="G"><use transform="matrix(0.05,0,0,0.05,0,0)" xlink:href="#S"/><use transform="matrix(0.05,0,0,0.05,3.95,0)" xlink:href="#K"/><use transform="matrix(0.05,0,0,0.05,12.949999999999998,0)" xlink:href="#R"/><use transform="matrix(0.05,0,0,0.05,22.95,0)" xlink:href="#ai"/><use transform="matrix(0.05,0,0,0.05,31.950000000000003,0)" xlink:href="#M"/><use transform="matrix(0.05,0,0,0.05,41.95,0)" xlink:href="#N"/><use transform="matrix(0.05,0,0,0.05,56.900000000000006,0)" xlink:href="#af"/><use transform="matrix(0.05,0,0,0.05,66.9,0)" xlink:href="#ae"/><use transform="matrix(0.05,0,0,0.05,70.85000000000001,0)" xlink:href="#P"/><use transform="matrix(0.05,0,0,0.05,80.85000000000001,0)" xlink:href="#L"/><use transform="matrix(0.05,0,0,0.05,85.85000000000001,0)" xlink:href="#P"/><use transform="matrix(0.05,0,0,0.05,95.85000000000001,0)" xlink:href="#T"/></g><g id="H"><use transform="matrix(0.05,0,0,0.05,0,0)" xlink:href="#L"/><use transform="matrix(0.05,0,0,0.05,5,0)" xlink:href="#ab"/><use transform="matrix(0.05,0,0,0.05,15,0)" xlink:href="#K"/><use transform="matrix(0.05,0,0,0.05,24,0)" xlink:href="#ap"/><use transform="matrix(0.05,0,0,0.05,33,0)" xlink:href="#R"/><use transform="matrix(0.05,0,0,0.05,43,0)" xlink:href="#S"/><use transform="matrix(0.05,0,0,0.05,46.95,0)" xlink:href="#T"/></g></defs></g></svg>