<?xml version="1.0" encoding="UTF-8"?>
<!-- Generator: visioncortex VTracer 0.6.3 -->
<svg version="1.1" xmlns="http://www.w3.org/2000/svg" width="1280" height="1280">
<path d="M0 0 C422.4 0 844.8 0 1280 0 C1280 422.4 1280 844.8 1280 1280 C857.6 1280 435.2 1280 0 1280 C0 857.6 0 435.2 0 0 Z " fill="#000102" transform="translate(0,0)"/>
<path d="M0 0 C18.56 17.58 29.64 42.33 30.84 67.79 C31.14 86.66 30.75 104.53 26.66 123.05 C26.36 124.47 26.06 125.9 25.75 127.33 C21.3 148.24 16.28 169 10.85 189.68 C10.65 190.47 10.44 191.26 10.23 192.07 C9.84 193.53 9.46 194.98 9.07 196.44 C8.06 200.29 7.25 204.11 6.66 208.05 C1.89 204.17 -2.23 200.1 -6.15 195.36 C-7.18 194.13 -8.22 192.89 -9.26 191.66 C-9.77 191.06 -10.29 190.45 -10.81 189.82 C-13.85 186.28 -17.02 182.87 -20.18 179.45 C-20.89 178.66 -21.6 177.86 -22.34 177.05 C-23.44 175.95 -23.44 175.95 -24.56 174.83 C-26.34 172.05 -26.34 172.05 -26.03 168.81 C-25.65 167.58 -25.28 166.34 -24.9 165.07 C-24.49 163.64 -24.08 162.2 -23.68 160.76 C-23.46 160 -23.24 159.24 -23.01 158.45 C-21.84 154.26 -20.87 150.02 -19.9 145.77 C-19.69 144.88 -19.48 143.99 -19.27 143.07 C-5.85 94.55 -5.85 94.55 -16.12 47.29 C-24.61 34.85 -34.44 25.82 -49.46 22.57 C-53.43 21.85 -57.31 21.28 -61.34 21.05 C-62.18 20.98 -63.02 20.92 -63.89 20.85 C-83.55 20.03 -107.04 27.26 -123.45 37.9 C-125.67 39.25 -127.99 40.22 -130.39 41.19 C-133.73 42.66 -136.88 44.49 -140.07 46.25 C-153.12 53.43 -166.4 60.14 -179.76 66.74 C-186.03 69.84 -186.03 69.84 -192.15 73.23 C-194.85 74.77 -197.53 76.02 -200.4 77.21 C-206.24 79.74 -211.85 82.76 -217.4 85.86 C-221.96 88.37 -226.61 90.61 -231.34 92.8 C-237.61 95.7 -243.74 98.79 -249.84 102.05 C-255.77 105.21 -261.73 108.23 -267.84 111.05 C-275.71 114.67 -283.35 118.67 -291 122.75 C-302.39 128.82 -302.39 128.82 -308.34 131.05 C-306 128.71 -303.67 126.38 -301.34 124.05 C-300.61 123.3 -299.87 122.55 -299.12 121.78 C-296.26 118.97 -293.28 116.36 -290.21 113.8 C-289.64 113.32 -289.07 112.84 -288.49 112.35 C-284.07 108.64 -279.61 104.99 -275.14 101.36 C-272.6 99.27 -270.1 97.15 -267.6 95.01 C-262.32 90.5 -256.96 86.15 -251.42 81.95 C-247.04 78.62 -242.78 75.16 -238.52 71.67 C-232.55 66.78 -226.47 62.09 -220.27 57.5 C-215.71 54.11 -211.25 50.62 -206.84 47.05 C-199.15 40.84 -191.27 34.92 -183.34 29.05 C-182.55 28.46 -181.75 27.87 -180.94 27.27 C-162.69 13.74 -162.69 13.74 -154.34 8.05 C-153.8 7.67 -153.26 7.3 -152.7 6.91 C-143.88 0.78 -135.08 -4.4 -125.34 -8.95 C-124.5 -9.38 -123.65 -9.81 -122.79 -10.25 C-83.98 -29.34 -34.26 -28.65 0 0 Z " fill="#0F95E8" transform="translate(839.3359375,305.953125)"/>
<path d="M0 0 C3.27 3.19 6.27 6.44 9.12 10 C12.55 14.24 16.03 18.42 19.56 22.56 C23.38 27.05 27.11 31.59 30.77 36.21 C33.66 39.82 36.58 43.41 39.5 47 C44.36 52.98 49.2 58.98 54 65 C54.62 65.77 55.24 66.54 55.88 67.34 C65.58 79.43 75.07 91.67 84.47 104 C86.7 106.92 88.94 109.84 91.19 112.75 C91.59 113.28 92 113.8 92.41 114.35 C94.36 116.89 96.33 119.41 98.31 121.92 C106.42 132.23 113.7 143.1 121 154 C121.6 154.89 122.2 155.78 122.81 156.69 C143.4 187.28 156.6 221.44 149.41 258.87 C144.14 283.8 131.55 305.51 110.75 320.64 C97.02 329.47 81.08 334.29 65 336.19 C64.29 336.27 63.58 336.36 62.84 336.44 C51.59 337.62 40.52 336.92 29.31 335.56 C28.61 335.48 27.91 335.39 27.19 335.31 C7.84 332.92 -11.07 328.56 -30 324 C-31.04 323.75 -32.07 323.5 -33.14 323.25 C-39.7 321.67 -46.25 320.06 -52.8 318.42 C-54.93 317.89 -57.05 317.37 -59.18 316.84 C-62.15 316.11 -65.1 315.36 -68.06 314.6 C-68.96 314.38 -69.85 314.16 -70.77 313.94 C-72.87 313.39 -74.94 312.71 -77 312 C-77.5 310.51 -77.5 310.51 -78 309 C-74.27 305.71 -70.52 302.44 -66.74 299.21 C-66.16 298.72 -65.58 298.23 -64.99 297.72 C-63.78 296.69 -62.58 295.67 -61.37 294.64 C-56.55 290.52 -51.9 286.24 -47.3 281.86 C-44.96 279.97 -43.91 279.44 -41 279 C-38.94 279.33 -38.94 279.33 -36.7 279.97 C-35.84 280.21 -34.98 280.44 -34.1 280.69 C-33.16 280.96 -32.22 281.22 -31.25 281.5 C22.6 298.42 22.6 298.42 76 292 C89.2 284.32 99.23 274.1 104.19 259.5 C110.4 232.73 103.68 204.29 90 181 C88.57 178.53 87.16 176.05 85.75 173.56 C85.38 172.91 85 172.25 84.62 171.57 C80.87 164.9 77.48 158.07 74.09 151.21 C71.28 145.53 68.38 139.9 65.38 134.31 C61.81 127.67 58.56 120.92 55.37 114.09 C52.9 108.8 50.27 103.63 47.5 98.5 C44.31 92.58 41.34 86.59 38.5 80.5 C35.63 74.35 32.64 68.3 29.44 62.31 C22.56 49.47 16.2 36.41 9.95 23.25 C7.05 17.15 4.07 11.1 0.93 5.11 C0 3 0 3 0 0 Z " fill="#0E94E7" transform="translate(720,395)"/>
<path d="M0 0 C4.75 3.86 8.86 7.9 12.75 12.62 C15.81 16.29 18.86 19.91 22.18 23.33 C22.69 23.86 23.19 24.38 23.71 24.92 C25.1 26.35 26.51 27.77 27.92 29.18 C30.57 32.77 30.99 34.52 31 39 C30.22 43.18 29.09 47.23 27.94 51.31 C27.28 53.74 26.63 56.17 25.98 58.6 C25.64 59.83 25.31 61.07 24.97 62.34 C11.19 109.96 11.19 109.96 20 157 C26.4 167.64 34.48 174.57 45.56 179.94 C46.16 180.23 46.76 180.53 47.38 180.83 C66.28 189.41 94.41 184.02 113.11 177.26 C118.69 174.83 123.99 171.87 129.31 168.92 C131.51 167.72 133.75 166.6 136 165.5 C140.1 163.47 144.15 161.35 148.19 159.19 C148.83 158.85 149.47 158.5 150.13 158.15 C153.3 156.45 156.47 154.75 159.63 153.02 C167.45 148.78 175.38 144.85 183.48 141.14 C187.95 139.08 191.9 136.74 196 134 C198.32 132.97 200.65 131.97 203 131 C205.2 129.93 207.38 128.85 209.56 127.75 C210.8 127.13 212.03 126.51 213.27 125.88 C213.89 125.57 214.51 125.25 215.15 124.93 C218.03 123.48 220.92 122.06 223.81 120.62 C228.99 118.04 234.09 115.36 239.19 112.62 C245.99 108.98 252.91 105.64 259.91 102.38 C265.23 99.88 270.45 97.23 275.62 94.44 C302.7 79.86 302.7 79.86 312 78 C309.17 80.92 306.23 83.52 303.06 86.06 C298.83 89.49 294.65 92.97 290.5 96.5 C282.12 103.61 273.64 110.54 264.9 117.2 C260.19 120.81 255.64 124.61 251.09 128.44 C247.81 131.18 244.44 133.81 241.06 136.44 C236.4 140.06 231.85 143.78 227.38 147.62 C222.57 151.73 217.65 155.6 212.56 159.36 C208.78 162.15 205.06 165.01 201.33 167.88 C193.77 173.67 186.2 179.38 178.31 184.72 C174.09 187.59 169.99 190.62 165.88 193.62 C160.15 197.79 154.39 201.81 148.36 205.53 C146.09 206.94 143.93 208.46 141.75 210 C124.76 221.35 103.3 228.04 83 229 C81.74 229.06 80.49 229.13 79.2 229.2 C52.45 230.11 25.75 222.96 5.75 204.56 C3.82 202.72 1.91 200.86 0 199 C-0.81 198.27 -1.63 197.54 -2.47 196.79 C-19.55 181.05 -25.33 155.83 -26.35 133.44 C-26.98 111.29 -23.26 90.05 -17.9 68.63 C-17.02 65.1 -16.25 61.56 -15.5 58 C-12.8 45.32 -9.73 32.77 -6.42 20.24 C-6.06 18.88 -5.7 17.52 -5.34 16.15 C-4.83 14.22 -4.32 12.29 -3.8 10.36 C-3.51 9.23 -3.21 8.1 -2.9 6.94 C-2.13 4.43 -1.27 2.29 0 0 Z " fill="#3FF8F8" transform="translate(450,506)"/>
<path d="M0 0 C1.25 0.15 2.49 0.3 3.77 0.45 C26.93 3.39 49.58 8.78 72.17 14.49 C74.91 15.18 77.64 15.86 80.38 16.54 C83.67 17.36 86.96 18.19 90.25 19.01 C91.46 19.31 92.68 19.62 93.93 19.93 C95.05 20.21 96.16 20.5 97.31 20.79 C98.3 21.03 99.28 21.28 100.29 21.54 C102.75 22.31 102.75 22.31 105.75 24.31 C105.32 28.66 102.48 30.78 99.38 33.5 C98.57 34.22 98.57 34.22 97.75 34.96 C93.39 38.83 88.91 42.55 84.33 46.15 C81.71 48.26 81.71 48.26 79.48 50.75 C77.32 53.05 75.53 54.8 72.75 56.31 C69.57 56.28 67.18 55.58 64.19 54.51 C53.18 50.67 41.62 48.28 30.25 45.81 C29.56 45.66 28.88 45.51 28.17 45.36 C19.12 43.39 10.06 41.54 0.94 39.94 C0.06 39.78 -0.82 39.63 -1.73 39.47 C-7.88 38.43 -14.03 37.8 -20.25 37.31 C-21.42 37.22 -21.42 37.22 -22.62 37.13 C-35.92 36.28 -50.14 43.76 -60.06 52.06 C-72.03 63.57 -77.58 77.19 -78.35 93.6 C-78.68 114.43 -73 134.27 -63.23 152.46 C-62.23 154.35 -61.27 156.26 -60.32 158.18 C-58.02 162.8 -55.61 167.37 -53.19 171.94 C-50.49 177.04 -47.83 182.15 -45.25 187.31 C-44.17 189.37 -43.08 191.42 -41.99 193.48 C-33.8 208.91 -25.99 224.52 -18.59 240.34 C-15.6 246.68 -12.36 252.86 -9.05 259.04 C-5.91 264.95 -3.02 270.94 -0.19 277 C3.12 284.06 6.66 290.88 10.56 297.63 C13.73 303.15 16.42 308.83 19.05 314.62 C21.32 319.62 23.85 324.5 26.37 329.39 C27.48 331.75 28.27 333.76 28.75 336.31 C24.95 332.61 21.44 328.73 18 324.69 C17.48 324.08 16.95 323.46 16.42 322.83 C12.46 318.19 8.6 313.48 4.75 308.75 C3 306.62 1.21 304.55 -0.62 302.5 C-4.17 298.5 -7.43 294.29 -10.71 290.08 C-14.48 285.26 -18.35 280.52 -22.25 275.81 C-26.98 270.09 -31.65 264.33 -36.21 258.47 C-38.99 254.91 -41.79 251.38 -44.62 247.86 C-50.51 240.55 -56.26 233.13 -61.94 225.66 C-64.18 222.71 -66.44 219.77 -68.71 216.84 C-73.92 210.13 -78.96 203.48 -83.39 196.22 C-85.32 193.21 -87.36 190.31 -89.45 187.41 C-99.93 172.81 -109.17 158.3 -115.25 141.31 C-115.65 140.22 -116.05 139.12 -116.46 137.99 C-126.14 109.05 -124.53 77.7 -111.73 50.02 C-103.88 34.6 -93.3 21.96 -78.25 13.31 C-77.23 12.72 -76.22 12.13 -75.17 11.53 C-51.72 -1.13 -26.05 -3.39 0 0 Z " fill="#3FF8F8" transform="translate(546.25,287.6875)"/>
<path d="M0 0 C3.27 3.19 6.27 6.44 9.12 10 C12.55 14.24 16.03 18.42 19.56 22.56 C23.38 27.05 27.11 31.59 30.77 36.21 C33.66 39.82 36.58 43.41 39.5 47 C44.36 52.98 49.2 58.98 54 65 C54.93 66.16 54.93 66.16 55.88 67.34 C65.58 79.43 75.07 91.67 84.47 104 C86.7 106.92 88.94 109.84 91.19 112.75 C91.59 113.28 92 113.8 92.41 114.35 C94.36 116.89 96.33 119.41 98.31 121.92 C106.42 132.23 113.7 143.1 121 154 C121.6 154.89 122.2 155.78 122.81 156.69 C139.77 181.88 151.21 207.43 151.19 238.38 C151.19 239.2 151.19 240.02 151.19 240.87 C151.14 247.07 150.52 252.97 149 259 C148.67 258.34 148.34 257.68 148 257 C145.72 255.95 145.72 255.95 143 255 C142.1 254.65 141.19 254.31 140.26 253.95 C139.29 253.58 138.32 253.21 137.32 252.83 C135.11 251.97 132.9 251.11 130.69 250.25 C129.58 249.83 128.48 249.41 127.35 248.98 C120.82 246.43 115.26 243.68 110 239 C109.45 238.53 108.9 238.06 108.34 237.58 C106.69 235.63 106.5 234.42 106.23 231.89 C106.13 231.08 106.03 230.27 105.92 229.44 C105.83 228.57 105.73 227.71 105.62 226.81 C104.38 217.43 102.21 208.88 99 200 C98.67 199.04 98.33 198.07 97.99 197.08 C95.09 189.46 90.96 182.58 86.86 175.55 C82.34 167.75 78.28 159.76 74.3 151.67 C71.4 145.79 68.43 139.96 65.31 134.19 C61.77 127.59 58.54 120.87 55.37 114.08 C52.9 108.8 50.27 103.63 47.5 98.5 C44.31 92.58 41.34 86.59 38.5 80.5 C35.63 74.35 32.64 68.3 29.44 62.31 C22.56 49.47 16.2 36.41 9.95 23.25 C7.05 17.15 4.07 11.1 0.93 5.11 C0 3 0 3 0 0 Z " fill="#3FF8F8" transform="translate(720,395)"/>
<path d="M0 0 C3.93 -0.12 7.86 -0.21 11.8 -0.27 C13.79 -0.31 15.79 -0.38 17.78 -0.44 C19.66 -0.46 19.66 -0.46 21.58 -0.49 C22.74 -0.51 23.9 -0.54 25.09 -0.57 C28 0 28 0 29.66 1.98 C30.1 2.98 30.54 3.97 31 5 C31.43 5.95 31.43 5.95 31.87 6.91 C32.91 9.2 33.9 11.52 34.88 13.83 C35.25 14.69 35.62 15.55 35.99 16.44 C37.19 19.23 38.38 22.02 39.56 24.81 C40.38 26.74 41.21 28.67 42.03 30.59 C46.97 42.18 51.87 53.8 56.69 65.44 C59.39 71.95 62.13 78.45 64.88 84.94 C65.33 86.01 65.78 87.08 66.25 88.19 C68.52 93.55 70.83 98.89 73.31 104.16 C74 106 74 106 74 109 C69.42 109.15 64.83 109.23 60.25 109.31 C58.95 109.35 57.65 109.4 56.3 109.44 C55.05 109.46 53.8 109.47 52.52 109.49 C51.36 109.51 50.21 109.54 49.02 109.57 C46 109 46 109 43.69 106.67 C41.77 103.64 40.49 100.67 39.25 97.31 C38.82 96.17 38.39 95.04 37.95 93.86 C37 91 37 91 37 89 C21.49 89 5.98 89 -10 89 C-10.99 91.97 -11.98 94.94 -13 98 C-14.65 101.63 -16.3 105.26 -18 109 C-26.91 109 -35.82 109 -45 109 C-46.24 105.28 -45.65 104.69 -43.96 101.27 C-41.82 96.78 -39.81 92.26 -37.91 87.67 C-37.65 87.03 -37.38 86.39 -37.1 85.72 C-36 83.07 -34.9 80.42 -33.81 77.77 C-30.52 69.84 -27.12 61.99 -23.45 54.22 C-21.13 49.3 -18.93 44.33 -16.81 39.31 C-16.06 37.54 -15.31 35.78 -14.55 34.01 C-14.15 33.06 -13.75 32.12 -13.34 31.15 C-10.99 25.63 -8.63 20.12 -6.26 14.61 C-4.94 11.54 -3.63 8.46 -2.31 5.39 C-1.54 3.59 -0.77 1.8 0 0 Z " fill="#3FF8F8" transform="translate(540,807)"/>
<path d="M0 0 C4.12 -0.03 8.25 -0.05 12.38 -0.06 C14.14 -0.08 14.14 -0.08 15.94 -0.09 C17.62 -0.09 17.62 -0.09 19.34 -0.1 C20.89 -0.11 20.89 -0.11 22.48 -0.11 C25 0 25 0 27 1 C27.33 15.19 27.66 29.38 28 44 C28.66 44.33 29.32 44.66 30 45 C30.22 44.47 30.43 43.93 30.65 43.38 C32.49 40.13 35 37.62 37.56 34.94 C42.27 29.94 46.68 24.79 50.98 19.43 C53.28 16.66 55.78 14.19 58.37 11.7 C60.74 9.23 62.68 6.5 64.64 3.7 C66 2 66 2 69 0 C71.85 -0.26 71.85 -0.26 75.28 -0.27 C77.13 -0.27 77.13 -0.27 79.02 -0.27 C80.31 -0.27 81.61 -0.26 82.94 -0.25 C84.87 -0.26 84.87 -0.26 86.84 -0.27 C88.08 -0.27 89.32 -0.27 90.59 -0.27 C91.72 -0.26 92.86 -0.26 94.02 -0.26 C96.9 -0.01 98.56 0.5 101 2 C100.32 2.68 99.64 3.36 98.94 4.06 C98.48 4.52 98.02 4.98 97.55 5.45 C96.49 6.51 95.43 7.56 94.36 8.61 C90.69 12.22 87.23 15.95 83.87 19.84 C81.84 22.19 79.77 24.5 77.69 26.81 C76.94 27.65 76.19 28.48 75.42 29.34 C73.71 31.22 71.99 33.07 70.24 34.91 C69.33 35.87 68.43 36.82 67.5 37.81 C66.25 39.12 66.25 39.12 64.97 40.46 C62.84 43.21 61.96 44.53 62 48 C63.53 50.87 63.53 50.87 65.94 53.81 C66.86 55.04 67.78 56.27 68.7 57.5 C69.22 58.19 69.74 58.89 70.27 59.6 C74.47 65.42 78.34 71.48 82.29 77.47 C85.64 82.54 89.03 87.51 92.75 92.3 C94.78 95.06 96.34 98.02 98 101 C98.74 102.11 99.49 103.22 100.25 104.31 C102 107 102 107 102 109 C97.71 109.2 93.43 109.34 89.14 109.44 C87.68 109.48 86.23 109.53 84.77 109.6 C72.78 110.16 72.78 110.16 68.62 107.44 C66.79 105.39 65.39 103.36 64 101 C63.14 99.78 62.28 98.57 61.41 97.36 C60.62 96.16 59.84 94.96 59.06 93.75 C58.21 92.44 57.35 91.14 56.5 89.83 C56.08 89.19 55.66 88.55 55.23 87.89 C53.38 85.05 51.5 82.25 49.62 79.44 C45.81 73.72 45.81 73.72 42 68 C36.38 72.08 31.84 77.24 28 83 C27.63 85.81 27.63 85.81 27.59 88.98 C27.55 90.14 27.51 91.31 27.47 92.51 C27.44 93.72 27.41 94.94 27.38 96.19 C27.34 97.41 27.3 98.64 27.26 99.9 C27.16 102.94 27.08 105.97 27 109 C22.71 109.06 18.42 109.09 14.12 109.12 C12.9 109.14 11.68 109.16 10.42 109.18 C8.67 109.19 8.67 109.19 6.88 109.2 C5.8 109.21 4.73 109.22 3.61 109.23 C1 109 1 109 -1 107 C-1.25 105.14 -1.25 105.14 -1.25 102.83 C-1.25 101.96 -1.26 101.08 -1.26 100.18 C-1.25 99.22 -1.25 98.26 -1.24 97.27 C-1.24 96.26 -1.25 95.25 -1.25 94.21 C-1.25 90.86 -1.24 87.51 -1.23 84.16 C-1.23 81.84 -1.23 79.52 -1.23 77.2 C-1.23 72.32 -1.22 67.45 -1.21 62.58 C-1.19 56.33 -1.18 50.08 -1.19 43.82 C-1.19 39.03 -1.18 34.23 -1.17 29.43 C-1.17 27.13 -1.17 24.82 -1.17 22.52 C-1.16 19.3 -1.16 16.08 -1.15 12.86 C-1.15 11.9 -1.15 10.94 -1.15 9.95 C-1.14 9.07 -1.14 8.2 -1.13 7.3 C-1.13 6.15 -1.13 6.15 -1.13 4.99 C-1 3 -1 3 0 0 Z " fill="#3FF8F8" transform="translate(725,807)"/>
<path d="M0 0 C1.25 0.15 2.49 0.3 3.77 0.45 C26.93 3.39 49.58 8.78 72.17 14.49 C74.91 15.18 77.64 15.86 80.38 16.54 C83.67 17.36 86.96 18.19 90.25 19.01 C91.46 19.31 92.68 19.62 93.93 19.93 C95.05 20.21 96.16 20.5 97.31 20.79 C98.3 21.03 99.28 21.28 100.29 21.54 C102.75 22.31 102.75 22.31 105.75 24.31 C105.32 28.66 102.48 30.78 99.38 33.5 C98.57 34.22 98.57 34.22 97.75 34.96 C93.39 38.83 88.91 42.55 84.33 46.15 C81.71 48.26 81.71 48.26 79.48 50.75 C77.32 53.05 75.53 54.8 72.75 56.31 C69.57 56.28 67.18 55.58 64.19 54.51 C53.18 50.67 41.62 48.28 30.25 45.81 C29.56 45.66 28.88 45.51 28.17 45.36 C19.12 43.39 10.06 41.54 0.94 39.94 C0.06 39.78 -0.82 39.63 -1.73 39.47 C-7.88 38.43 -14.03 37.8 -20.25 37.31 C-21.42 37.22 -21.42 37.22 -22.62 37.13 C-35.99 36.28 -50.29 43.81 -60.19 52.25 C-64.06 55.9 -67.27 59.91 -70.25 64.31 C-71.24 63.98 -72.23 63.65 -73.25 63.31 C-74.76 59.25 -74.44 54.85 -74.5 50.57 C-74.53 48.82 -74.56 47.08 -74.6 45.34 C-74.64 42.61 -74.69 39.87 -74.73 37.13 C-74.77 34.49 -74.82 31.84 -74.87 29.19 C-74.88 27.97 -74.88 27.97 -74.9 26.72 C-74.99 22.53 -75.18 19.08 -77.25 15.31 C-77.91 14.98 -78.57 14.65 -79.25 14.31 C-77.61 13.27 -75.93 12.29 -74.25 11.31 C-73.65 10.95 -73.05 10.59 -72.43 10.21 C-50.42 -2.01 -24.34 -3.17 0 0 Z " fill="#09C9F2" transform="translate(546.25,287.6875)"/>
<path d="M0 0 C3.14 14.29 2.83 28.69 0 43 C-1.19 43.44 -2.39 43.87 -3.62 44.32 C-14.93 48.51 -14.93 48.51 -25.21 54.73 C-27.92 56.65 -30.94 57.73 -34 59 C-36.6 60.36 -39.16 61.78 -41.73 63.2 C-54.79 70.38 -68.07 77.09 -81.42 83.69 C-87.69 86.8 -87.69 86.8 -93.81 90.19 C-96.52 91.73 -99.2 92.98 -102.07 94.16 C-107.91 96.69 -113.51 99.71 -119.06 102.81 C-123.63 105.33 -128.27 107.57 -133 109.75 C-139.27 112.65 -145.41 115.74 -151.5 119 C-157.43 122.17 -163.39 125.19 -169.5 128 C-177.37 131.63 -185.02 135.62 -192.66 139.7 C-204.05 145.77 -204.05 145.77 -210 148 C-207.67 145.67 -205.33 143.33 -203 141 C-202.27 140.25 -201.54 139.5 -200.79 138.73 C-197.93 135.93 -194.94 133.32 -191.88 130.75 C-191.31 130.27 -190.74 129.79 -190.15 129.3 C-185.74 125.59 -181.28 121.94 -176.8 118.31 C-174.27 116.22 -171.76 114.1 -169.27 111.97 C-163.98 107.45 -158.62 103.11 -153.08 98.91 C-148.7 95.57 -144.44 92.12 -140.19 88.62 C-134.22 83.73 -128.13 79.05 -121.93 74.45 C-117.37 71.06 -112.92 67.57 -108.5 64 C-100.81 57.8 -92.94 51.87 -85 46 C-84.21 45.41 -83.42 44.83 -82.6 44.22 C-64.35 30.69 -64.35 30.69 -56 25 C-55.46 24.62 -54.92 24.25 -54.36 23.86 C-45.55 17.73 -36.75 12.54 -27 8 C-26.04 7.54 -25.09 7.08 -24.1 6.6 C-5.73 -2.09 -5.73 -2.09 0 0 Z " fill="#09C9F2" transform="translate(741,289)"/>
<path d="M0 0 C2.21 3.31 2.43 4.16 2 8 C0.76 10.97 0.76 10.97 -0.88 14.06 C-1.41 15.08 -1.94 16.11 -2.49 17.16 C-2.99 18.1 -3.49 19.03 -4 20 C-4.67 21.33 -5.34 22.66 -6 24 C-9.77 23.38 -12.9 22.26 -16.38 20.69 C-32.05 14 -32.05 14 -48.31 15.31 C-51.22 16.88 -51.22 16.88 -53 20 C-53.09 23.04 -53.09 23.04 -52 26 C-43.94 32.27 -32.37 34.64 -22.71 37.48 C-13.17 40.47 -7.13 44.74 -1.06 52.69 C-0.5 53.41 0.07 54.14 0.65 54.89 C4.68 61.2 3.8 70.76 3 78 C1.89 81.83 0.34 84.79 -2 88 C-2.4 88.57 -2.8 89.14 -3.21 89.72 C-10.06 97.83 -21.65 100.67 -31.73 101.76 C-52.86 103.32 -72.07 97.61 -89 85 C-88.37 82.14 -87.48 79.72 -86.15 77.11 C-85.79 76.4 -85.44 75.69 -85.07 74.96 C-84.7 74.23 -84.32 73.5 -83.94 72.75 C-83.56 72 -83.18 71.26 -82.79 70.49 C-81.87 68.66 -80.93 66.83 -80 65 C-75.48 65 -74.29 65.82 -70.56 68.19 C-60.85 74.06 -50.95 78.1 -39.56 78.31 C-38.26 78.35 -36.97 78.39 -35.63 78.43 C-31.46 77.94 -29.85 77.03 -27 74 C-26.35 70.05 -26.45 67.93 -28.5 64.47 C-31.84 61.17 -35.07 60.24 -39.5 58.94 C-40.71 58.56 -40.71 58.56 -41.94 58.17 C-44.29 57.43 -46.64 56.72 -49 56 C-61.89 51.97 -72.37 47.95 -81 37 C-84.39 30.32 -83.68 21.84 -81.75 14.81 C-78.79 5.92 -73.46 0.71 -65.38 -3.62 C-44.99 -13.2 -19.53 -10.73 0 0 Z " fill="#3FF8F8" transform="translate(706,815)"/>
<path d="M0 0 C4.75 3.86 8.86 7.9 12.75 12.62 C15.81 16.29 18.86 19.91 22.18 23.33 C22.69 23.86 23.19 24.38 23.71 24.92 C25.1 26.35 26.51 27.77 27.92 29.18 C30.57 32.77 30.99 34.52 31 39 C30.22 43.18 29.09 47.23 27.94 51.31 C27.28 53.75 26.63 56.18 25.97 58.62 C25.64 59.85 25.31 61.09 24.97 62.36 C19.83 81.71 16.19 101.25 13 121 C12.35 121.11 11.71 121.22 11.04 121.33 C10.37 121.55 9.69 121.77 9 122 C8.79 122.91 8.59 123.82 8.38 124.75 C6.2 129.89 1.98 130.97 -3 133 C-3.96 133.4 -4.91 133.79 -5.89 134.2 C-15.35 137.89 -15.35 137.89 -20 137 C-22.7 135.2 -24.54 133.92 -26 131 C-27.62 109.96 -22.98 88.95 -17.9 68.63 C-17.02 65.1 -16.25 61.56 -15.5 58 C-12.8 45.32 -9.73 32.77 -6.42 20.24 C-6.06 18.88 -5.7 17.52 -5.34 16.15 C-4.83 14.22 -4.32 12.29 -3.8 10.36 C-3.51 9.23 -3.21 8.1 -2.9 6.94 C-2.13 4.43 -1.27 2.29 0 0 Z " fill="#09CAF3" transform="translate(450,506)"/>
<path d="M0 0 C11.85 -0.02 23.7 -0.04 35.54 -0.05 C41.04 -0.06 46.54 -0.06 52.05 -0.08 C57.35 -0.09 62.65 -0.09 67.96 -0.09 C69.98 -0.1 72.01 -0.1 74.04 -0.11 C76.87 -0.11 79.7 -0.11 82.53 -0.11 C83.8 -0.12 83.8 -0.12 85.1 -0.12 C90.89 -0.11 90.89 -0.11 92 1 C92.09 2.56 92.11 4.13 92.1 5.69 C92.1 6.54 92.09 7.39 92.09 8.27 C92.08 9.36 92.07 10.44 92.06 11.56 C92.04 15.01 92.02 18.45 92 22 C76.16 22.5 76.16 22.5 60 23 C60 51.38 60 79.76 60 109 C51.09 109 42.18 109 33 109 C31.44 105.89 31.83 102.59 31.81 99.17 C31.8 98.36 31.79 97.55 31.79 96.72 C31.77 94.96 31.75 93.21 31.74 91.45 C31.72 88.67 31.69 85.89 31.66 83.12 C31.59 76.22 31.53 69.32 31.47 62.43 C31.42 56.6 31.37 50.77 31.31 44.95 C31.28 42.2 31.26 39.46 31.24 36.72 C31.22 35.04 31.21 33.37 31.19 31.7 C31.19 30.93 31.18 30.16 31.18 29.37 C31.45 25.89 31.45 25.89 30 23 C27.86 22.84 25.71 22.75 23.56 22.68 C22.25 22.64 20.95 22.6 19.6 22.56 C18.21 22.52 16.83 22.48 15.44 22.44 C14.04 22.39 12.65 22.35 11.26 22.31 C7.84 22.2 4.42 22.1 1 22 C-0.2 19.6 -0.11 18.11 -0.1 15.43 C-0.09 14.53 -0.09 13.64 -0.09 12.71 C-0.08 11.78 -0.07 10.84 -0.06 9.88 C-0.06 8.93 -0.05 7.99 -0.05 7.01 C-0.04 4.67 -0.02 2.34 0 0 Z " fill="#3FF8F8" transform="translate(401,807)"/>
<path d="M0 0 C0.66 0 1.32 0 2 0 C3.99 3.97 5.97 7.94 7.96 11.91 C8.31 12.62 8.66 13.32 9.02 14.04 C9.83 15.67 10.64 17.3 11.45 18.93 C13.58 23.15 15.79 27.32 18 31.5 C20.72 36.64 23.4 41.8 26 47 C27.08 49.06 28.17 51.11 29.26 53.16 C37.45 68.6 45.26 84.21 52.66 100.03 C55.65 106.37 58.89 112.55 62.2 118.73 C65.34 124.63 68.23 130.63 71.06 136.69 C74.37 143.75 77.91 150.57 81.81 157.32 C84.98 162.84 87.67 168.52 90.3 174.31 C92.57 179.31 95.1 184.19 97.62 189.07 C98.73 191.44 99.52 193.45 100 196 C96.2 192.29 92.69 188.42 89.25 184.38 C88.47 183.46 88.47 183.46 87.67 182.52 C83.71 177.88 79.85 173.17 76 168.43 C74.25 166.31 72.46 164.24 70.62 162.19 C67.08 158.19 63.82 153.98 60.54 149.77 C56.77 144.94 52.9 140.21 49 135.5 C44.27 129.78 39.6 124.02 35.04 118.16 C32.26 114.6 29.46 111.07 26.63 107.55 C21.3 100.94 16.06 94.28 10.96 87.49 C8.13 83.73 5.23 80.06 2.18 76.46 C1.57 75.71 0.95 74.97 0.32 74.2 C-0.87 72.77 -2.07 71.36 -3.3 69.97 C-4.91 67.99 -6.04 66.37 -7 64 C-6.56 62.06 -6.56 62.06 -5.66 59.99 C-3.56 54.35 -3.58 49.07 -3.59 43.11 C-3.58 42 -3.57 40.89 -3.56 39.74 C-3.52 35.03 -3.5 30.31 -3.49 25.6 C-3.47 22.14 -3.44 18.69 -3.41 15.23 C-3.41 14.16 -3.41 13.1 -3.42 12 C-3.4 10.51 -3.4 10.51 -3.38 8.99 C-3.38 7.69 -3.38 7.69 -3.38 6.36 C-2.92 3.49 -1.98 2.09 0 0 Z " fill="#09C9F2" transform="translate(475,428)"/>
<path d="M0 0 C0.75 0.01 1.49 0.02 2.26 0.03 C10.28 0.27 16.5 2.12 22.5 7.62 C30.46 16.36 32.19 24.93 31.95 36.39 C31.52 45.48 27.72 51.43 21.09 57.52 C13.47 63.58 5.31 64.71 -4.31 64.44 C-13.68 62.96 -21.96 56.84 -27.87 49.64 C-32.62 42.39 -33.28 34.06 -31.84 25.71 C-29.67 16.32 -25.2 10.44 -17.54 4.76 C-11.57 1.21 -6.87 -0.1 0 0 Z " fill="#09C9F2" transform="translate(643.3125,472.5625)"/>
<path d="M0 0 C4.29 -0.03 8.58 -0.05 12.88 -0.06 C14.71 -0.08 14.71 -0.08 16.58 -0.09 C18.33 -0.09 18.33 -0.09 20.12 -0.1 C21.74 -0.11 21.74 -0.11 23.39 -0.11 C26 0 26 0 28 1 C28.02 14.93 28.04 28.87 28.05 42.8 C28.06 49.27 28.06 55.74 28.08 62.21 C28.09 68.45 28.09 74.68 28.09 80.92 C28.1 83.31 28.1 85.69 28.11 88.08 C28.11 91.41 28.11 94.74 28.11 98.06 C28.12 99.06 28.12 100.06 28.12 101.09 C28.12 101.99 28.12 102.89 28.12 103.82 C28.12 104.61 28.12 105.39 28.12 106.21 C28 108 28 108 27 109 C25.07 109.09 23.14 109.11 21.21 109.1 C19.46 109.09 19.46 109.09 17.67 109.09 C16.44 109.08 15.21 109.07 13.94 109.06 C12.08 109.06 12.08 109.06 10.19 109.05 C7.13 109.04 4.06 109.02 1 109 C-0.17 106.66 -0.12 105.3 -0.12 102.7 C-0.12 101.79 -0.12 100.89 -0.12 99.96 C-0.12 98.97 -0.12 97.97 -0.11 96.95 C-0.11 95.91 -0.11 94.86 -0.11 93.79 C-0.11 90.32 -0.11 86.86 -0.1 83.4 C-0.1 81 -0.09 78.61 -0.09 76.21 C-0.09 69.89 -0.08 63.58 -0.07 57.26 C-0.06 50.82 -0.05 44.38 -0.05 37.94 C-0.04 25.29 -0.02 12.65 0 0 Z " fill="#3FF8F8" transform="translate(841,807)"/>
<path d="M0 0 C0.73 0.58 0.73 0.58 1.47 1.17 C10.26 8 19.9 11.66 30.22 15.64 C31.16 16.02 32.11 16.39 33.08 16.78 C33.93 17.11 34.78 17.44 35.65 17.78 C38.35 19.18 40.07 20.67 42 23 C41.45 40.27 29.13 60.58 17.38 72.78 C14.41 75.55 11.43 77.84 8 80 C7.53 79.57 7.05 79.13 6.56 78.69 C4.24 77.16 2.57 76.45 -0.04 75.63 C-25.55 67.34 -25.55 67.34 -34 59 C-30.88 56.48 -27.73 54.01 -24.56 51.56 C-23.39 50.65 -23.39 50.65 -22.2 49.72 C-20.91 48.71 -19.61 47.71 -18.3 46.72 C-9.27 39.68 -3.26 28.85 -1.65 17.56 C-1.36 14.9 -1.11 12.23 -0.88 9.56 C-0.79 8.64 -0.7 7.72 -0.61 6.77 C-0.4 4.51 -0.2 2.26 0 0 Z " fill="#08C9F2" transform="translate(827,631)"/>
<path d="M0 0 C5.23 -0.18 9.89 0.44 14.98 1.65 C15.75 1.83 16.51 2 17.29 2.18 C19.78 2.76 22.27 3.35 24.75 3.94 C26.48 4.34 28.21 4.75 29.94 5.15 C41.9 7.97 53.84 10.91 65.75 13.94 C66.51 14.13 67.26 14.32 68.04 14.52 C70.17 15.05 72.3 15.6 74.42 16.15 C75.62 16.46 76.83 16.77 78.07 17.09 C81 18 81 18 84 20 C83.57 24.35 80.73 26.47 77.62 29.19 C77.09 29.67 76.55 30.15 76 30.65 C71.64 34.52 67.16 38.23 62.58 41.84 C59.96 43.95 59.96 43.95 57.73 46.44 C55.57 48.74 53.78 50.49 51 52 C46.68 51.95 43.02 50.48 39 49 C36.82 48.37 34.63 47.77 32.44 47.19 C31.21 46.86 29.98 46.52 28.71 46.18 C18.22 43.48 7.59 41.3 -3 39 C-2.67 38.12 -2.34 37.23 -2 36.32 C-0.06 29.55 -0.96 22.22 -1.17 15.25 C-1.18 14.12 -1.2 12.99 -1.22 11.83 C-1.25 10.81 -1.28 9.78 -1.31 8.73 C-0.96 5.61 -0.08 4.29 2 2 C1.34 1.34 0.68 0.68 0 0 Z " fill="#0F95E8" transform="translate(568,292)"/>
<path d="M0 0 C5.97 5.29 10.33 10.41 11.3 18.53 C11.34 27.2 8.78 32.94 2.86 39.27 C-2.96 44.69 -9.05 44.49 -16.7 44.27 C-25.42 43.56 -31.29 38.3 -37 32 C-40.03 25.35 -39.83 18.74 -37.5 11.94 C-34.82 5.81 -30.77 1.87 -24.8 -1.09 C-16.76 -4.13 -7.6 -4.37 0 0 Z " fill="#3FF8F8" transform="translate(505,964)"/>
<path d="M0 0 C4.75 3.86 8.86 7.9 12.75 12.62 C15.81 16.29 18.86 19.91 22.18 23.33 C22.69 23.86 23.19 24.38 23.71 24.92 C25.1 26.35 26.51 27.77 27.92 29.18 C30.45 32.61 30.87 34.77 31 39 C30.44 42.09 30.44 42.09 29.56 44.94 C29.28 45.9 28.99 46.85 28.69 47.84 C28.46 48.55 28.24 49.27 28 50 C27.17 50.11 26.34 50.22 25.49 50.34 C14.04 52.23 3.94 56.47 -6.68 61.04 C-9.41 62.17 -12.18 63.13 -15 64 C-16.65 58.05 -15.12 53.28 -13.56 47.5 C-13.3 46.47 -13.03 45.45 -12.75 44.39 C-12.17 42.15 -11.57 39.9 -10.98 37.66 C-10.11 34.43 -9.27 31.19 -8.42 27.96 C-7.71 25.22 -7 22.49 -6.28 19.76 C-5.93 18.43 -5.58 17.09 -5.23 15.75 C-4.74 13.87 -4.23 11.99 -3.73 10.11 C-3.45 9.03 -3.16 7.94 -2.87 6.83 C-2.11 4.36 -1.24 2.25 0 0 Z " fill="#0E95E8" transform="translate(450,506)"/>
<path d="M0 0 C3.67 -0.09 7.33 -0.14 11 -0.19 C12.54 -0.23 12.54 -0.23 14.12 -0.26 C21.37 -0.33 26.89 0.32 33.09 4.37 C36.69 8.22 37.44 11.3 37.62 16.56 C37.37 21.99 36.73 25.05 33 29 C32.01 29.66 31.02 30.32 30 31 C30.56 35.35 32.15 38.18 34.56 41.81 C35.2 42.79 35.84 43.76 36.5 44.77 C37 45.51 37.49 46.24 38 47 C30.81 47.61 30.81 47.61 27.25 44.94 C21 36.78 21 36.78 21 33 C16.71 33 12.42 33 8 33 C7.67 37.62 7.34 42.24 7 47 C5.02 47 3.04 47 1 47 C-1 45 -1 45 -1.25 43.14 C-1.25 42.39 -1.24 41.63 -1.24 40.86 C-1.25 39.58 -1.25 39.58 -1.25 38.27 C-1.25 37.34 -1.24 36.42 -1.23 35.47 C-1.23 34.52 -1.23 33.58 -1.23 32.6 C-1.23 30.6 -1.22 28.59 -1.21 26.59 C-1.19 23.51 -1.19 20.44 -1.19 17.36 C-1.18 15.42 -1.17 13.48 -1.17 11.53 C-1.17 10.61 -1.17 9.68 -1.16 8.73 C-1.16 7.45 -1.16 7.45 -1.15 6.14 C-1.14 5.39 -1.14 4.64 -1.13 3.86 C-1 2 -1 2 0 0 Z " fill="#3FF8F8" transform="translate(712,961)"/>
<path d="M0 0 C6.87 0.65 10.98 3.72 15.62 8.62 C22.3 16.7 23.85 24.87 23.37 35.16 C22.38 45.41 17.85 51.5 10 58 C5.12 61.19 5.12 61.19 1.33 60.55 C0.56 60.37 -0.21 60.19 -1 60 C-1.02 52.62 -1.04 45.24 -1.05 37.86 C-1.06 34.43 -1.06 31.01 -1.08 27.58 C-1.09 23.64 -1.09 19.7 -1.1 15.76 C-1.1 14.53 -1.11 13.3 -1.11 12.03 C-1.11 10.89 -1.11 9.75 -1.11 8.57 C-1.12 7.06 -1.12 7.06 -1.12 5.52 C-1 3 -1 3 0 0 Z " fill="#0E94E7" transform="translate(652,474)"/>
<path d="M0 0 C2.64 0 5.28 0 8 0 C28 39.06 28 39.06 28 47 C24.81 47.5 24.81 47.5 21 47 C18.82 44.59 17.41 41.91 16 39 C15.67 38.34 15.34 37.68 15 37 C7.41 37 -0.18 37 -8 37 C-8.5 39.48 -8.5 39.48 -9 42 C-10.19 44.81 -10.19 44.81 -12 47 C-15.19 47.31 -15.19 47.31 -18 47 C-19.53 42.34 -17.67 39.22 -15.7 34.98 C-15.35 34.2 -15 33.43 -14.64 32.63 C-13.52 30.14 -12.39 27.66 -11.25 25.19 C-10.5 23.53 -9.75 21.87 -9 20.22 C-7.62 17.15 -6.22 14.09 -4.83 11.04 C-3.16 7.38 -1.57 3.7 0 0 Z " fill="#3FF8F8" transform="translate(800,961)"/>
<path d="M0 0 C4.16 3.57 5.89 6.66 6.61 12.01 C7.01 21.7 7.01 21.7 4 25.5 C2.61 26.68 2.61 26.68 1.19 27.88 C0.47 28.49 -0.26 29.11 -1 29.75 C-6.32 31.88 -11.22 31.88 -16.58 29.81 C-20.81 27.54 -24.06 25.45 -26 20.94 C-27.42 15.6 -26.6 11.07 -24.12 6.19 C-21.67 2.22 -18.38 -0.3 -13.9 -1.74 C-9.18 -2.61 -4.41 -1.77 0 0 Z " fill="#000102" transform="translate(500.8125,970.125)"/>
<path d="M0 0 C4.9 4.74 4.9 4.74 5.17 8.17 C5.17 9.02 5.18 9.87 5.19 10.75 C5.2 11.59 5.22 12.43 5.23 13.3 C4.95 16.63 4.48 18.98 3 22 C0.64 23.58 -1.38 24.68 -3.94 25.81 C-4.64 26.15 -5.35 26.48 -6.08 26.82 C-8.38 27.9 -10.69 28.95 -13 30 C-16.11 31.45 -19.21 32.91 -22.31 34.38 C-23.1 34.74 -23.88 35.11 -24.69 35.49 C-32.16 39.02 -39.45 42.85 -46.73 46.74 C-58.02 52.76 -58.02 52.76 -64 55 C-61.67 52.67 -59.33 50.33 -57 48 C-55.9 46.88 -55.9 46.88 -54.79 45.73 C-51.93 42.93 -48.94 40.32 -45.88 37.75 C-45.31 37.27 -44.74 36.79 -44.15 36.3 C-39.74 32.59 -35.28 28.94 -30.8 25.31 C-28.27 23.22 -25.76 21.1 -23.26 18.96 C-17.68 14.19 -12 9.6 -6.14 5.17 C-3.97 3.53 -1.93 1.93 0 0 Z " fill="#3FF8F8" transform="translate(595,382)"/>
<path d="M0 0 C2.56 2.19 2.56 2.19 4 4 C3.34 5.32 2.68 6.64 2 8 C-1.64 8 -2.64 7.86 -5.69 6.44 C-11.57 4.13 -16.61 5.07 -22.38 7.31 C-26.54 9.99 -28.73 13.22 -30 18 C-29.93 22.7 -29.5 26.94 -27 31 C-22.06 35.7 -17.15 36.53 -10.52 36.37 C-7.8 35.97 -6.17 35.71 -4 34 C-3.29 31.12 -3.29 31.12 -3.25 27.88 C-3.16 26.23 -3.16 26.23 -3.08 24.55 C-3.04 23.29 -3.04 23.29 -3 22 C-1.02 21.67 0.96 21.34 3 21 C4.59 24.19 4.1 27.63 4.06 31.12 C4.06 31.88 4.05 32.63 4.05 33.41 C4.04 35.27 4.02 37.14 4 39 C-2.34 42.78 -6.38 44.15 -13.88 44.25 C-15.67 44.29 -15.67 44.29 -17.49 44.33 C-25.7 43.56 -31.61 37.85 -37 32 C-40.03 25.35 -39.83 18.74 -37.5 11.94 C-34.82 5.81 -30.77 1.87 -24.8 -1.09 C-16.39 -4.27 -8.11 -3.88 0 0 Z " fill="#40F9F9" transform="translate(429,964)"/>
<path d="M0 0 C5.49 -0.37 5.49 -0.37 7.53 1.1 C9.57 3.73 10.53 6.45 11.7 9.57 C12.06 10.52 12.06 10.52 12.43 11.49 C12.93 12.83 13.43 14.17 13.93 15.51 C14.69 17.56 15.46 19.61 16.24 21.66 C20 31.69 20 31.69 20 34 C23.16 33.33 23.16 33.33 24.2 30.72 C24.57 29.73 24.95 28.74 25.34 27.71 C25.76 26.63 26.19 25.54 26.62 24.42 C27.27 22.69 27.27 22.69 27.94 20.94 C30.68 13.78 33.42 6.78 37 0 C38.65 0 40.3 0 42 0 C43.19 1.48 43.19 1.48 44 4 C43.15 6.91 42.2 9.5 41.02 12.27 C40.69 13.07 40.36 13.88 40.02 14.7 C38.97 17.27 37.89 19.82 36.81 22.38 C36.1 24.09 35.4 25.8 34.69 27.52 C29.21 40.78 29.21 40.78 26 47 C24.76 47.12 23.52 47.25 22.25 47.38 C21.21 47.48 21.21 47.48 20.14 47.59 C16.68 46.64 15.8 43.99 14 41 C13.04 38.87 12.14 36.71 11.31 34.54 C10.84 33.32 10.37 32.11 9.88 30.86 C9.4 29.6 8.92 28.33 8.44 27.06 C7.48 24.57 6.52 22.09 5.56 19.6 C5.11 18.44 4.67 17.28 4.21 16.09 C3.25 13.64 2.25 11.24 1.17 8.84 C-0.13 5.69 -0.25 3.37 0 0 Z " fill="#3FF8F8" transform="translate(589,961)"/>
<path d="M0 0 C2.09 2.09 2.71 3.41 3.77 6.11 C4.1 6.94 4.43 7.77 4.77 8.63 C5.11 9.51 5.46 10.4 5.81 11.31 C6.34 12.66 6.34 12.66 6.88 14.04 C7.6 15.85 8.3 17.66 9.01 19.47 C9.87 21.68 10.75 23.88 11.64 26.07 C12.09 27.2 12.54 28.34 13 29.5 C13.39 30.48 13.78 31.46 14.19 32.47 C15 35 15 35 15 39 C5.76 39 -3.48 39 -13 39 C-14.42 34.73 -12.65 31.82 -11.04 27.83 C-10.72 27.04 -10.41 26.24 -10.09 25.42 C-9.09 22.88 -8.08 20.35 -7.06 17.81 C-6.38 16.09 -5.7 14.37 -5.03 12.65 C-3.36 8.43 -1.68 4.21 0 0 Z " fill="#000102" transform="translate(553,836)"/>
<path d="M0 0 C3 0.12 3 0.12 4 1.12 C4.15 3.85 4.24 6.55 4.28 9.28 C4.31 10.51 4.31 10.51 4.34 11.76 C4.42 15.27 4.48 18.78 4.55 22.3 C4.6 24.85 4.66 27.41 4.72 29.97 C4.73 30.77 4.75 31.57 4.76 32.4 C4.5 36.06 4.5 36.06 6 39.12 C8.86 39.36 11.7 39.55 14.56 39.69 C15.77 39.75 15.77 39.75 17.01 39.82 C19 39.92 21 40.03 23 40.12 C23.66 42.11 24.32 44.09 25 46.12 C24 47.12 24 47.12 21.41 47.24 C20.28 47.23 19.16 47.23 18 47.22 C16.78 47.22 15.57 47.22 14.31 47.21 C13.04 47.2 11.76 47.2 10.44 47.19 C9.15 47.18 7.87 47.18 6.55 47.17 C3.37 47.16 0.18 47.15 -3 47.12 C-4.16 44.8 -4.13 43.46 -4.13 40.87 C-4.13 40 -4.14 39.12 -4.14 38.22 C-4.14 37.27 -4.13 36.32 -4.13 35.34 C-4.13 34.37 -4.13 33.4 -4.14 32.4 C-4.14 30.34 -4.13 28.29 -4.13 26.23 C-4.13 23.07 -4.13 19.91 -4.14 16.76 C-4.14 14.76 -4.13 12.77 -4.13 10.78 C-4.13 9.83 -4.14 8.88 -4.14 7.9 C-4.14 7.02 -4.13 6.15 -4.13 5.25 C-4.13 4.47 -4.13 3.7 -4.13 2.9 C-3.91 -0.2 -3.15 0.13 0 0 Z " fill="#3FF8F8" transform="translate(865,960.875)"/>
<path d="M0 0 C0.99 0 1.98 0 3 0 C3 15.84 3 31.68 3 48 C-2.32 45.34 -5.61 42.12 -8.05 36.63 C-11.17 27.13 -10.72 18.31 -7 9 C-4.99 5.72 -2.72 2.72 0 0 Z " fill="#3FF8F8" transform="translate(621,481)"/>
<path d="M0 0 C11.29 0.06 11.29 0.06 15.39 2.27 C17.63 4.96 18.32 6.82 18.89 10.27 C18.22 14.29 16.47 15.7 13.39 18.27 C10.42 19.75 7.69 19.44 4.39 19.45 C2.5 19.47 2.5 19.47 0.58 19.5 C-2.61 19.27 -2.61 19.27 -4.61 17.27 C-4.81 14.72 -4.89 12.31 -4.86 9.77 C-4.87 9.08 -4.87 8.39 -4.88 7.68 C-4.85 0.49 -4.85 0.49 0 0 Z " fill="#000102" transform="translate(723.609375,967.734375)"/>
<path d="M0 0 C2 -0.04 4 -0.04 6 0 C7 1 7 1 7.12 2.87 C7.12 4.09 7.12 4.09 7.11 5.34 C7.11 6.26 7.11 7.18 7.11 8.13 C7.11 9.13 7.1 10.13 7.1 11.16 C7.1 12.18 7.09 13.2 7.09 14.25 C7.09 17.52 7.08 20.79 7.06 24.06 C7.06 26.27 7.05 28.49 7.05 30.7 C7.04 36.13 7.02 41.57 7 47 C4.12 47.12 4.12 47.12 1 47 C-1 45 -1 45 -1.25 43.14 C-1.25 42.39 -1.24 41.63 -1.24 40.86 C-1.25 39.58 -1.25 39.58 -1.25 38.27 C-1.25 37.34 -1.24 36.42 -1.23 35.47 C-1.23 34.52 -1.23 33.58 -1.23 32.6 C-1.23 30.6 -1.22 28.59 -1.21 26.59 C-1.19 23.51 -1.19 20.44 -1.19 17.36 C-1.18 15.42 -1.17 13.48 -1.17 11.53 C-1.17 10.61 -1.17 9.68 -1.16 8.73 C-1.16 7.45 -1.16 7.45 -1.15 6.14 C-1.14 5.39 -1.14 4.64 -1.13 3.86 C-1 2 -1 2 0 0 Z " fill="#40F9F9" transform="translate(666,961)"/>
<path d="M0 0 C0.25 0.95 0.5 1.9 0.75 2.88 C1.92 7 3.54 10.91 5.2 14.86 C6 17 6 17 6 19 C1.05 19 -3.9 19 -9 19 C-7.79 12.64 -6.24 6.67 -3 1 C-1 0 -1 0 0 0 Z " fill="#000102" transform="translate(806,971)"/>
<path d="M0 0 C1.98 0 3.96 0 6 0 C6 1.32 6 2.64 6 4 C4.02 4 2.04 4 0 4 C0 2.68 0 1.36 0 0 Z " fill="#31DDE5" transform="translate(782,1004)"/>
</svg>
